# Blender 5.2.2 LTS
# www.blender.org
mtllib salvia_plant.mtl
o Sphere.004
v -1.297844 16.906031 0.186671
v -1.217766 17.252478 -0.480411
v -0.486340 16.842897 -1.476995
v 0.066029 15.658640 -0.981937
v -0.043816 17.240955 -0.120969
v 0.419601 16.251101 -0.810950
v -0.818434 16.613897 0.667278
v 0.159794 15.809652 0.380004
v -1.435616 16.206640 0.381683
v -1.260286 15.536161 0.279022
v -0.838827 15.150697 -0.082098
v -1.659618 16.174742 -0.868667
v -0.579020 15.592144 -1.273053
v -2.835503 18.575481 -1.709969
v -2.226326 18.720297 -1.424461
v -1.706139 18.128042 -0.379437
v -2.548111 17.211971 0.027170
v -2.888178 18.916445 -0.447273
v -2.669476 17.844046 0.270754
v -3.447838 18.480429 -1.410650
v -3.682583 17.739933 -0.357090
v -3.109541 17.965132 -1.871085
v -3.224020 17.327509 -1.638895
v -3.135212 16.906160 -1.102088
v -2.002508 17.567373 -1.652707
v -2.122101 17.010275 -0.474245
v -0.414211 19.464449 -2.584895
v -0.807426 19.734329 -2.119013
v -1.969883 19.520124 -1.959291
v -2.253082 18.702438 -2.841316
v -1.379372 20.128557 -3.081769
v -2.281340 19.348356 -3.069162
v -0.498177 19.403259 -3.255699
v -1.469509 18.984438 -3.798490
v -0.329323 18.825686 -2.756496
v -0.628052 18.285379 -2.911522
v -1.196293 18.049906 -2.990758
v -0.937300 18.616449 -1.774835
v -2.008125 18.413820 -2.261433
v -0.227976 20.270561 -0.062953
v -0.438316 20.615856 -0.603363
v -0.263510 20.354650 -1.735791
v 0.381630 19.321342 -1.659825
v 0.627821 20.663609 -0.829866
v 0.722166 19.857584 -1.640344
v 0.345228 20.019377 0.090280
v 1.004292 19.389528 -0.613452
v -0.250225 19.635099 0.106511
v -0.147552 19.061079 -0.093731
v 0.040825 18.767754 -0.587192
v -0.931099 19.657558 -0.787373
v -0.241301 19.235809 -1.614082
v -2.217339 21.740164 -0.788599
v -1.625587 21.892662 -0.818187
v -0.789227 21.350250 -0.255321
v -1.276060 20.466841 0.373703
v -1.751545 21.971346 0.255028
v -1.279057 21.003199 0.659529
v -2.575621 21.600821 -0.291787
v -2.326414 20.878042 0.596412
v -2.491327 21.192837 -0.835975
v -2.480892 20.611387 -0.643273
v -2.190022 20.217907 -0.284103
v -1.530859 20.903227 -1.169675
v -1.142664 20.343061 -0.220986
v -0.680946 22.727215 -2.476135
v -0.803669 22.915071 -1.919452
v -1.648651 22.642090 -1.301641
v -2.219217 21.949047 -1.928613
v -1.645391 23.275316 -2.407394
v -2.339928 22.528259 -2.055324
v -1.017391 22.702789 -2.974249
v -1.994465 22.298609 -3.008340
v -0.677391 22.178831 -2.689590
v -0.968979 21.691296 -2.716945
v -1.444330 21.450830 -2.547754
v -0.755253 21.903578 -1.662147
v -1.789791 21.680479 -1.594736
v 0.476698 23.318228 -0.510382
v 0.089811 23.636942 -0.824453
v -0.228325 23.477224 -1.812999
v 0.318642 22.604839 -2.099260
v 0.833914 23.760439 -1.463879
v 0.588255 23.098591 -2.197563
v 0.990702 23.126320 -0.654286
v 1.229342 22.651022 -1.537660
v 0.534084 22.747976 -0.407247
v 0.539364 22.259295 -0.646952
v 0.490520 22.038847 -1.137942
v -0.361526 22.769918 -0.817121
v -0.150568 22.486414 -1.797843
v -1.391514 24.521183 -0.126109
v -0.940895 24.695740 -0.396914
v -0.051994 24.243029 -0.349704
v -0.170710 23.399996 0.303046
v -0.606569 24.700897 0.511896
v -0.062836 23.857531 0.564740
v -1.470261 24.349100 0.413722
v -0.908527 23.682154 0.961930
v -1.620104 24.023462 -0.079497
v -1.528225 23.501726 0.031271
v -1.150978 23.155260 0.163888
v -0.998859 23.848366 -0.779362
v -0.305283 23.330637 -0.233305
v -0.878633 25.579260 -2.065730
v -0.751690 25.707762 -1.559991
v -1.161898 25.379833 -0.721486
v -1.855967 24.764565 -1.013842
v -1.612690 25.995691 -1.557238
v -2.007626 25.273689 -1.024629
v -1.343643 25.561739 -2.315163
v -2.119699 25.143562 -1.943376
v -0.956688 25.107389 -2.271182
v -1.191582 24.660162 -2.197265
v -1.493593 24.408407 -1.872214
v -0.599625 24.806185 -1.442094
v -1.381517 24.538534 -0.953466
v 0.818140 26.073151 -0.975856
v 0.384567 26.345114 -1.035845
v -0.263016 26.235140 -1.689871
v 0.058905 25.517035 -2.209755
v 0.708405 26.535856 -1.857168
v 0.225700 25.974852 -2.373138
v 1.164991 25.945101 -1.325319
v 0.999741 25.587910 -2.158247
v 0.910517 25.569016 -0.955633
v 0.822609 25.151236 -1.178786
v 0.587996 24.979387 -1.560081
v 0.042183 25.551247 -0.889313
v -0.186047 25.366331 -1.774972
v -0.503670 26.991175 0.216826
v -0.261482 27.188536 -0.182075
v 0.459255 26.845181 -0.559915
v 0.638443 26.060520 -0.045782
v 0.368099 27.167524 0.391962
v 0.824291 26.457100 0.143610
v -0.345469 26.806252 0.667127
v 0.323362 26.226635 0.814123
v -0.659151 26.535234 0.321237
v -0.537119 26.075708 0.335611
v -0.184185 25.788118 0.254460
v -0.453133 26.457989 -0.513590
v 0.316744 26.018583 -0.416054
v -0.896133 28.058157 -1.472929
v -0.593386 28.153311 -1.119779
v -0.572838 27.793844 -0.299110
v -1.229256 27.221601 -0.268109
v -1.270403 28.350677 -0.725063
v -1.357626 27.660902 -0.178211
v -1.361502 28.025366 -1.469316
v -1.815674 27.586821 -0.864673
v -1.035717 27.647963 -1.631699
v -1.185604 27.234682 -1.499723
v -1.288544 26.976171 -1.127412
v -0.417492 27.362631 -1.150186
v -0.830498 27.050253 -0.440953
v 0.870325 28.547329 -1.316470
v 0.503323 28.761801 -1.158144
v -0.267887 28.656712 -1.401187
v -0.218452 28.072046 -1.998248
v 0.423347 28.993847 -1.936450
v -0.158247 28.494879 -2.170737
v 1.002342 28.475361 -1.751841
v 0.539545 28.193239 -2.361804
v 0.955969 28.108065 -1.372819
v 0.800961 27.745815 -1.537852
v 0.464512 27.598944 -1.748535
v 0.301941 28.032255 -0.944157
v -0.233280 27.900583 -1.557468
v -1.297844 10.632399 0.186671
v -1.217768 10.978846 -0.480412
v -0.486340 10.569265 -1.476995
v 0.066029 9.385007 -0.981937
v -0.043818 10.967323 -0.120971
v 0.419600 9.977468 -0.810951
v -0.818436 10.340265 0.667277
v 0.159794 9.536020 0.380003
v -1.435617 9.933007 0.381681
v -1.260288 9.262529 0.279020
v -0.838829 8.877064 -0.082099
v -1.659620 9.901111 -0.868668
v -0.579021 9.318512 -1.273054
v -2.835501 12.301847 -1.709971
v -2.226326 12.446663 -1.424464
v -1.706139 11.854411 -0.379438
v -2.548111 10.938337 0.027169
v -2.888180 12.642812 -0.447274
v -2.669476 11.570413 0.270752
v -3.447838 12.206799 -1.410651
v -3.682587 11.466299 -0.357091
v -3.109541 11.691500 -1.871086
v -3.224020 11.053873 -1.638896
v -3.135212 10.632528 -1.102089
v -2.002510 11.293741 -1.652708
v -2.122101 10.736642 -0.474247
v -0.414211 13.190814 -2.584896
v -0.807428 13.460697 -2.119012
v -1.969883 13.246490 -1.959294
v -2.253082 12.428803 -2.841318
v -1.379372 13.854925 -3.081769
v -2.281342 13.074720 -3.069164
v -0.498178 13.129627 -3.255700
v -1.469509 12.710806 -3.798490
v -0.329323 12.552053 -2.756495
v -0.628052 12.011745 -2.911522
v -1.196295 11.776271 -2.990762
v -0.937302 12.342817 -1.774835
v -2.008127 12.140187 -2.261435
v -0.227978 13.996927 -0.062953
v -0.438318 14.342222 -0.603364
v -0.263512 14.081017 -1.735793
v 0.381632 13.047709 -1.659828
v 0.627821 14.389976 -0.829868
v 0.722164 13.583950 -1.640344
v 0.345226 13.745745 0.090280
v 1.004292 13.115893 -0.613455
v -0.250229 13.361466 0.106510
v -0.147556 12.787445 -0.093731
v 0.040825 12.494120 -0.587193
v -0.931099 13.383923 -0.787375
v -0.241302 12.962177 -1.614084
v -2.217339 15.466529 -0.788601
v -1.625587 15.619028 -0.818188
v -0.789227 15.076614 -0.255324
v -1.276062 14.193207 0.373701
v -1.751545 15.697714 0.255027
v -1.279057 14.729565 0.659527
v -2.575623 15.327188 -0.291789
v -2.326416 14.604409 0.596411
v -2.491325 14.919203 -0.835976
v -2.480892 14.337753 -0.643275
v -2.190022 13.944274 -0.284104
v -1.530861 14.629593 -1.169675
v -1.142664 14.069429 -0.220987
v -0.680946 16.453581 -2.476137
v -0.803669 16.641438 -1.919453
v -1.648653 16.368456 -1.301643
v -2.219219 15.675415 -1.928616
v -1.645390 17.001682 -2.407395
v -2.339926 16.254625 -2.055325
v -1.017395 16.429155 -2.974251
v -1.994465 16.024975 -3.008341
v -0.677391 15.905198 -2.689592
v -0.968977 15.417662 -2.716948
v -1.444330 15.177195 -2.547754
v -0.755253 15.629946 -1.662150
v -1.789791 15.406845 -1.594738
v 0.476700 17.044596 -0.510384
v 0.089811 17.363308 -0.824455
v -0.228325 17.203590 -1.813000
v 0.318640 16.331205 -2.099261
v 0.833912 17.486805 -1.463880
v 0.588253 16.824957 -2.197565
v 0.990700 16.852688 -0.654287
v 1.229342 16.377388 -1.537663
v 0.534082 16.474342 -0.407247
v 0.539364 15.985662 -0.646953
v 0.490520 15.765213 -1.137944
v -0.361526 16.496283 -0.817122
v -0.150566 16.212780 -1.797846
v -1.391514 18.247549 -0.126110
v -0.940897 18.422106 -0.396916
v -0.051996 17.969395 -0.349707
v -0.170710 17.126362 0.303043
v -0.606569 18.427265 0.511896
v -0.062838 17.583899 0.564737
v -1.470263 18.075468 0.413721
v -0.908529 17.408520 0.961930
v -1.620104 17.749828 -0.079499
v -1.528227 17.228092 0.031271
v -1.150978 16.881628 0.163887
v -0.998859 17.574734 -0.779364
v -0.305285 17.057005 -0.233305
v -0.878635 19.305628 -2.065732
v -0.751690 19.434130 -1.559994
v -1.161900 19.106199 -0.721487
v -1.855968 18.490932 -1.013843
v -1.612690 19.722057 -1.557239
v -2.007626 19.000055 -1.024628
v -1.343645 19.288107 -2.315165
v -2.119701 18.869930 -1.943377
v -0.956688 18.833755 -2.271183
v -1.191582 18.386530 -2.197267
v -1.493595 18.134775 -1.872216
v -0.599627 18.532553 -1.442096
v -1.381519 18.264900 -0.953468
v 0.818140 19.799517 -0.975858
v 0.384563 20.071480 -1.035847
v -0.263018 19.961508 -1.689871
v 0.058903 19.243404 -2.209755
v 0.708403 20.262224 -1.857168
v 0.225698 19.701220 -2.373140
v 1.164989 19.671471 -1.325320
v 0.999739 19.314278 -2.158247
v 0.910517 19.295383 -0.955633
v 0.822609 18.877602 -1.178787
v 0.587994 18.705753 -1.560081
v 0.042185 19.277613 -0.889315
v -0.186047 19.092699 -1.774973
v -0.503670 20.717543 0.216825
v -0.261480 20.914902 -0.182077
v 0.459255 20.571547 -0.559917
v 0.638443 19.786888 -0.045783
v 0.368099 20.893890 0.391959
v 0.824291 20.183466 0.143608
v -0.345469 20.532618 0.667125
v 0.323360 19.953003 0.814122
v -0.659149 20.261600 0.321234
v -0.537119 19.802073 0.335609
v -0.184187 19.514484 0.254458
v -0.453131 20.184355 -0.513592
v 0.316744 19.744949 -0.416056
v -0.896135 21.784523 -1.472930
v -0.593388 21.879679 -1.119781
v -0.572840 21.520212 -0.299114
v -1.229258 20.947969 -0.268110
v -1.270403 22.077044 -0.725066
v -1.357626 21.387266 -0.178215
v -1.361500 21.751732 -1.469317
v -1.815674 21.313185 -0.864674
v -1.035717 21.374331 -1.631700
v -1.185608 20.961048 -1.499724
v -1.288548 20.702539 -1.127411
v -0.417492 21.088997 -1.150187
v -0.830498 20.776619 -0.440956
v 0.870323 22.273695 -1.316469
v 0.503321 22.488167 -1.158146
v -0.267887 22.383078 -1.401188
v -0.218451 21.798414 -1.998250
v 0.423347 22.720215 -1.936450
v -0.158249 22.221247 -2.170738
v 1.002342 22.201727 -1.751841
v 0.539543 21.919607 -2.361805
v 0.955967 21.834433 -1.372819
v 0.800959 21.472181 -1.537854
v 0.464508 21.325312 -1.748536
v 0.301941 21.758621 -0.944160
v -0.233280 21.626951 -1.557468
v -0.359886 30.142420 -1.618390
v -0.659599 30.142418 -1.474056
v -0.733624 30.142420 -1.149740
v -0.526218 30.142420 -0.889654
v -0.193558 30.142420 -0.889655
v 0.013849 30.142420 -1.149737
v -0.060173 30.142418 -1.474058
v -0.990585 8.222284 -1.091090
v -0.640575 8.222285 -0.652189
v -0.359886 8.222284 -1.881960
v -0.865669 8.222286 -1.638388
v -0.079201 8.222284 -0.652188
v 0.270811 8.222285 -1.091089
v 0.145893 8.222285 -1.638389
vn 0.4874 -0.1334 -0.8629
vn -0.2799 0.7982 -0.5334
vn -0.1027 0.8536 0.5107
vn -0.2877 -0.2180 0.9326
vn 0.8590 -0.5120 -0.0024
vn 0.0690 -0.6408 0.7646
vn -0.5215 -0.4754 -0.7085
vn -0.9454 -0.2742 0.1764
vn -0.5646 0.3230 0.7595
vn 0.4310 -0.8993 -0.0743
vn -0.9476 0.2961 0.1197
vn 0.2932 0.0151 0.9559
vn -0.7255 -0.6769 -0.1242
vn 0.8887 0.4551 -0.0560
vn 0.6268 -0.2483 0.7385
vn 0.8054 0.5888 -0.0672
vn -0.1888 0.9461 -0.2633
vn -0.8317 -0.0520 -0.5528
vn -0.4543 -0.3950 0.7985
vn -0.8888 -0.4202 -0.1828
vn 0.6988 -0.6715 -0.2465
vn 0.0583 -0.3508 -0.9346
vn -0.4510 0.4116 -0.7920
vn -0.3600 -0.8363 0.4136
vn 0.3028 0.1973 -0.9324
vn -0.9696 0.2403 -0.0471
vn 0.1435 -0.7668 -0.6256
vn -0.0966 0.5401 0.8361
vn -0.9500 -0.0078 0.3123
vn -0.0157 0.6512 0.7587
vn 0.5907 0.8036 -0.0733
vn 0.7770 -0.2659 -0.5705
vn -0.7073 -0.2625 -0.6564
vn 0.3368 -0.5574 -0.7588
vn -0.2170 -0.6346 0.7418
vn 0.7676 -0.5285 0.3627
vn 0.9764 0.1667 -0.1374
vn -0.5142 -0.7295 -0.4510
vn 0.8226 0.0347 0.5675
vn 0.4514 0.1021 -0.8865
vn 0.3182 -0.8835 0.3439
vn -0.6107 0.7001 -0.3701
vn 0.0144 -0.0644 -0.9978
vn -0.5276 0.8063 -0.2674
vn 0.1266 0.8183 0.5607
vn 0.2113 -0.2880 0.9340
vn 0.7701 -0.4735 -0.4274
vn 0.4539 -0.6790 0.5769
vn -0.7840 -0.4556 -0.4217
vn -0.7543 -0.3324 0.5662
vn -0.1416 0.2597 0.9553
vn 0.3719 -0.8677 -0.3297
vn -0.7921 0.2509 0.5565
vn 0.7173 -0.0273 0.6962
vn -0.6843 -0.7111 0.1615
vn 0.7546 0.5071 -0.4164
vn 0.9055 -0.2602 0.3353
vn 0.6690 0.6407 -0.3767
vn -0.3252 0.9435 -0.0639
vn -0.9921 -0.0551 -0.1124
vn 0.0030 -0.4703 0.8825
vn -0.8673 -0.4534 0.2056
vn 0.5184 -0.6265 -0.5820
vn -0.3919 -0.2958 -0.8712
vn -0.7848 0.4314 -0.4450
vn -0.0862 -0.8862 0.4552
vn -0.1971 0.2678 -0.9431
vn -0.8875 0.2026 0.4139
vn -0.1500 -0.7247 -0.6725
vn 0.3028 0.4894 0.8178
vn -0.6996 -0.0675 0.7113
vn 0.3316 0.6074 0.7219
vn 0.4623 0.8465 -0.2640
vn 0.4241 -0.2041 -0.8823
vn -0.9274 -0.2535 -0.2751
vn -0.0527 -0.5029 -0.8627
vn 0.1947 -0.6929 0.6943
vn 0.8578 -0.5090 -0.0714
vn 0.8032 0.2206 -0.5533
vn -0.6476 -0.7281 -0.2246
vn 0.9912 0.0366 0.1275
vn -0.0384 0.1758 -0.9837
vn 0.4727 -0.8775 0.0808
vn -0.7299 0.6835 0.0103
vn -0.4717 -0.0064 -0.8817
vn -0.6136 0.7865 0.0704
vn 0.3539 0.7908 0.4994
vn 0.6461 -0.3305 0.6880
vn 0.4916 -0.4203 -0.7627
vn 0.6927 -0.6812 0.2370
vn -0.8826 -0.4669 -0.0549
vn -0.3880 -0.4093 0.8258
vn 0.3327 0.2002 0.9215
vn 0.1976 -0.8289 -0.5234
vn -0.4441 0.1891 0.8758
vn 0.9596 -0.0365 0.2789
vn -0.5084 -0.7656 0.3943
vn 0.4560 0.5795 -0.6754
vn 0.9616 -0.2393 -0.1342
vn 0.3920 0.7085 -0.5869
vn -0.3475 0.9226 0.1676
vn -0.9344 -0.0915 0.3443
vn 0.4490 -0.5210 0.7259
vn -0.6638 -0.5154 0.5419
vn 0.1970 -0.5742 -0.7946
vn -0.7535 -0.2608 -0.6036
vn -0.9087 0.4174 0.0005
vn 0.1778 -0.9162 0.3592
vn -0.6377 0.3117 -0.7044
vn -0.5983 0.1439 0.7882
vn -0.4323 -0.6920 -0.5782
vn 0.6446 0.4541 0.6151
vn -0.2747 -0.1419 0.9510
vn 0.6198 0.5791 0.5297
vn 0.2512 0.8945 -0.3699
vn -0.0492 -0.1377 -0.9893
vn -0.9477 -0.2790 0.1551
vn -0.4478 -0.4559 -0.7692
vn 0.5289 -0.7175 0.4533
vn 0.7373 -0.4678 -0.4875
vn 0.4429 0.2953 -0.8465
vn -0.6597 -0.7508 0.0330
vn 0.9406 0.0718 -0.3318
vn -0.5188 0.2309 -0.8231
vn 0.4807 -0.8508 -0.2123
vn -0.6563 0.6463 0.3895
vn -0.8347 0.0241 -0.5501
vn -0.5292 0.7493 0.3980
vn 0.5261 0.7782 0.3430
vn 0.8999 -0.3371 0.2766
vn 0.0780 -0.3602 -0.9296
vn 0.7382 -0.6556 -0.1588
vn -0.8009 -0.5104 0.3130
vn 0.0765 -0.4822 0.8727
vn 0.7293 0.1603 0.6651
vn -0.0504 -0.7892 -0.6121
vn 0.0286 0.1219 0.9921
vn 0.9818 -0.0119 -0.1897
vn -0.2321 -0.8253 0.5148
vn 0.0528 0.6510 -0.7572
vn 0.7973 -0.1927 -0.5720
vn 0.0343 0.7713 -0.6355
vn -0.2557 0.8908 0.3757
vn -0.6685 -0.1548 0.7275
vn 0.7546 -0.5350 0.3799
vn -0.3104 -0.5910 0.7446
vn -0.1929 -0.5224 -0.8306
vn -0.9435 -0.2571 -0.2090
vn -0.8136 0.3785 0.4413
vn 0.3607 -0.9199 0.1536
vn -0.9001 0.3200 -0.2958
vn -0.1517 0.0749 0.9856
vn -0.6368 -0.6776 -0.3680
vn 0.8488 0.4456 0.2845
vn 0.2290 -0.2112 0.9502
vn 0.7835 0.5762 0.2328
vn 0.0087 0.9327 -0.3605
vn -0.5199 -0.0830 -0.8502
vn -0.7663 -0.3360 0.5476
vn -0.7489 -0.4291 -0.5050
vn 0.6993 -0.7085 0.0952
vn 0.4333 -0.4130 -0.8011
vn -0.0333 0.3706 -0.9282
vn -0.5465 -0.7945 0.2646
vn 0.6805 0.1341 -0.7204
vn -0.8527 0.2526 -0.4573
vn 0.3482 -0.8124 -0.4678
vn -0.4125 0.5974 0.6877
vn -0.9946 0.0202 -0.1021
vn -0.2991 0.7033 0.6449
vn 0.6051 0.7856 0.1296
vn 0.9310 -0.3124 -0.1888
vn -0.3718 -0.3048 -0.8768
vn 0.5939 -0.6129 -0.5212
vn -0.5491 -0.5783 0.6033
vn 0.5076 -0.5275 0.6812
vn 0.9526 0.1519 0.2637
vn -0.3129 -0.7555 -0.5756
vn 0.5041 0.0662 0.8611
vn 0.7867 0.0413 -0.6160
vn 0.0767 -0.8712 0.4848
vn -0.3459 0.6977 -0.6273
vn -0.1930 -0.5224 -0.8306
vn -0.6367 -0.6776 -0.3680
vn -0.0000 1.0000 -0.0000
vn -0.7818 0.0108 0.6235
vn -0.4339 0.0108 -0.9009
vn -0.9749 0.0108 -0.2225
vn 0.7818 0.0108 0.6235
vn 0.9749 0.0108 -0.2225
vn -0.0000 0.0108 0.9999
vn 0.4339 0.0108 -0.9009
vn -0.0000 -1.0000 -0.0000
vt 0.700000 0.000000
vt 0.800000 0.200000
vt 0.600000 0.400000
vt 0.400000 0.200000
vt 0.800000 0.600000
vt 0.600000 0.800000
vt 0.400000 0.600000
vt 0.300000 1.000000
vt 0.200000 0.800000
vt 0.000000 0.800000
vt 0.000000 0.600000
vt 0.200000 0.400000
vt 0.300000 0.000000
vt 0.000000 0.400000
vt 1.000000 0.400000
vt 1.000000 0.600000
vt 1.000000 0.800000
vt 0.100000 1.000000
vt 0.700000 1.000000
vt 0.000000 0.000000
vt 0.753864 0.623564
vt 0.753099 0.620210
vt 0.750000 0.618718
vt 0.746901 0.620210
vt 0.746136 0.623564
vt 0.748280 0.626253
vt 0.751720 0.626253
s 0
usemtl salvia_purplle
f 4/1/1 13/2/1 3/3/1 6/4/1
f 3/3/2 12/5/2 2/6/2 5/7/2
f 1/8/3 7/9/3 5/7/3 2/6/3
f 7/9/4 9/10/4 10/11/4
f 6/4/5 8/12/5 4/13/5
f 11/14/6 8/12/6 10/11/6
f 11/15/7 12/5/7 3/3/7 13/2/7
f 10/16/8 9/17/8 12/5/8
f 7/9/9 1/18/9 9/10/9
f 4/13/10 8/12/10 11/15/10 13/2/10
f 1/19/11 2/6/11 12/5/11 9/17/11
f 5/7/12 7/9/12 10/11/12 8/12/12
f 11/15/13 10/16/13 12/5/13
f 3/3/14 5/7/14 8/12/14 6/4/14
f 17/1/15 26/2/15 16/3/15 19/4/15
f 16/3/16 25/5/16 15/6/16 18/7/16
f 14/8/17 20/9/17 18/7/17 15/6/17
f 20/9/18 22/10/18 23/11/18
f 19/4/19 21/12/19 17/13/19
f 24/14/20 21/12/20 23/11/20
f 24/15/21 25/5/21 16/3/21 26/2/21
f 23/16/22 22/17/22 25/5/22
f 20/9/23 14/18/23 22/10/23
f 17/13/24 21/12/24 24/15/24 26/2/24
f 14/19/25 15/6/25 25/5/25 22/17/25
f 18/7/26 20/9/26 23/11/26 21/12/26
f 24/15/27 23/16/27 25/5/27
f 16/3/28 18/7/28 21/12/28 19/4/28
f 30/1/29 39/2/29 29/3/29 32/4/29
f 29/3/30 38/5/30 28/6/30 31/7/30
f 27/8/31 33/9/31 31/7/31 28/6/31
f 33/9/32 35/10/32 36/11/32
f 32/4/33 34/12/33 30/13/33
f 37/14/34 34/12/34 36/11/34
f 37/15/35 38/5/35 29/3/35 39/2/35
f 36/16/36 35/17/36 38/5/36
f 33/9/37 27/18/37 35/10/37
f 30/13/38 34/12/38 37/15/38 39/2/38
f 27/19/39 28/6/39 38/5/39 35/17/39
f 31/7/40 33/9/40 36/11/40 34/12/40
f 37/15/41 36/16/41 38/5/41
f 29/3/42 31/7/42 34/12/42 32/4/42
f 43/1/43 52/2/43 42/3/43 45/4/43
f 42/3/44 51/5/44 41/6/44 44/7/44
f 40/8/45 46/9/45 44/7/45 41/6/45
f 46/9/46 48/10/46 49/11/46
f 45/4/47 47/12/47 43/13/47
f 50/14/48 47/12/48 49/11/48
f 50/15/49 51/5/49 42/3/49 52/2/49
f 49/16/50 48/17/50 51/5/50
f 46/9/51 40/18/51 48/10/51
f 43/13/52 47/12/52 50/15/52 52/2/52
f 40/19/53 41/6/53 51/5/53 48/17/53
f 44/7/54 46/9/54 49/11/54 47/12/54
f 50/15/55 49/16/55 51/5/55
f 42/3/56 44/7/56 47/12/56 45/4/56
f 56/1/57 65/2/57 55/3/57 58/4/57
f 55/3/58 64/5/58 54/6/58 57/7/58
f 53/8/59 59/9/59 57/7/59 54/6/59
f 59/9/60 61/10/60 62/11/60
f 58/4/61 60/12/61 56/13/61
f 63/14/62 60/12/62 62/11/62
f 63/15/63 64/5/63 55/3/63 65/2/63
f 62/16/64 61/17/64 64/5/64
f 59/9/65 53/18/65 61/10/65
f 56/13/66 60/12/66 63/15/66 65/2/66
f 53/19/67 54/6/67 64/5/67 61/17/67
f 57/7/68 59/9/68 62/11/68 60/12/68
f 63/15/69 62/16/69 64/5/69
f 55/3/70 57/7/70 60/12/70 58/4/70
f 69/1/71 78/2/71 68/3/71 71/4/71
f 68/3/72 77/5/72 67/6/72 70/7/72
f 66/8/73 72/9/73 70/7/73 67/6/73
f 72/9/74 74/10/74 75/11/74
f 71/4/75 73/12/75 69/13/75
f 76/14/76 73/12/76 75/11/76
f 76/15/77 77/5/77 68/3/77 78/2/77
f 75/16/78 74/17/78 77/5/78
f 72/9/79 66/18/79 74/10/79
f 69/13/80 73/12/80 76/15/80 78/2/80
f 66/19/81 67/6/81 77/5/81 74/17/81
f 70/7/82 72/9/82 75/11/82 73/12/82
f 76/15/83 75/16/83 77/5/83
f 68/3/84 70/7/84 73/12/84 71/4/84
f 82/1/85 91/2/85 81/3/85 84/4/85
f 81/3/86 90/5/86 80/6/86 83/7/86
f 79/8/87 85/9/87 83/7/87 80/6/87
f 85/9/88 87/10/88 88/11/88
f 84/4/89 86/12/89 82/13/89
f 89/14/90 86/12/90 88/11/90
f 89/15/91 90/5/91 81/3/91 91/2/91
f 88/16/92 87/17/92 90/5/92
f 85/9/93 79/18/93 87/10/93
f 82/13/94 86/12/94 89/15/94 91/2/94
f 79/19/95 80/6/95 90/5/95 87/17/95
f 83/7/96 85/9/96 88/11/96 86/12/96
f 89/15/97 88/16/97 90/5/97
f 81/3/98 83/7/98 86/12/98 84/4/98
f 95/1/99 104/2/99 94/3/99 97/4/99
f 94/3/100 103/5/100 93/6/100 96/7/100
f 92/8/101 98/9/101 96/7/101 93/6/101
f 98/9/102 100/10/102 101/11/102
f 97/4/103 99/12/103 95/13/103
f 102/14/104 99/12/104 101/11/104
f 102/15/105 103/5/105 94/3/105 104/2/105
f 101/16/106 100/17/106 103/5/106
f 98/9/107 92/18/107 100/10/107
f 95/13/108 99/12/108 102/15/108 104/2/108
f 92/19/109 93/6/109 103/5/109 100/17/109
f 96/7/110 98/9/110 101/11/110 99/12/110
f 102/15/111 101/16/111 103/5/111
f 94/3/112 96/7/112 99/12/112 97/4/112
f 108/1/113 117/2/113 107/3/113 110/4/113
f 107/3/114 116/5/114 106/6/114 109/7/114
f 105/8/115 111/9/115 109/7/115 106/6/115
f 111/9/116 113/10/116 114/11/116
f 110/4/117 112/12/117 108/13/117
f 115/14/118 112/12/118 114/11/118
f 115/15/119 116/5/119 107/3/119 117/2/119
f 114/16/120 113/17/120 116/5/120
f 111/9/121 105/18/121 113/10/121
f 108/13/122 112/12/122 115/15/122 117/2/122
f 105/19/123 106/6/123 116/5/123 113/17/123
f 109/7/124 111/9/124 114/11/124 112/12/124
f 115/15/125 114/16/125 116/5/125
f 107/3/126 109/7/126 112/12/126 110/4/126
f 121/1/127 130/2/127 120/3/127 123/4/127
f 120/3/128 129/5/128 119/6/128 122/7/128
f 118/8/129 124/9/129 122/7/129 119/6/129
f 124/9/130 126/10/130 127/11/130
f 123/4/131 125/12/131 121/13/131
f 128/14/132 125/12/132 127/11/132
f 128/15/133 129/5/133 120/3/133 130/2/133
f 127/16/134 126/17/134 129/5/134
f 124/9/135 118/18/135 126/10/135
f 121/13/136 125/12/136 128/15/136 130/2/136
f 118/19/137 119/6/137 129/5/137 126/17/137
f 122/7/138 124/9/138 127/11/138 125/12/138
f 128/15/139 127/16/139 129/5/139
f 120/3/140 122/7/140 125/12/140 123/4/140
f 134/1/141 143/2/141 133/3/141 136/4/141
f 133/3/142 142/5/142 132/6/142 135/7/142
f 131/8/143 137/9/143 135/7/143 132/6/143
f 137/9/144 139/10/144 140/11/144
f 136/4/145 138/12/145 134/13/145
f 141/14/146 138/12/146 140/11/146
f 141/15/147 142/5/147 133/3/147 143/2/147
f 140/16/148 139/17/148 142/5/148
f 137/9/149 131/18/149 139/10/149
f 134/13/150 138/12/150 141/15/150 143/2/150
f 131/19/151 132/6/151 142/5/151 139/17/151
f 135/7/152 137/9/152 140/11/152 138/12/152
f 141/15/153 140/16/153 142/5/153
f 133/3/154 135/7/154 138/12/154 136/4/154
f 147/1/155 156/2/155 146/3/155 149/4/155
f 146/3/156 155/5/156 145/6/156 148/7/156
f 144/8/157 150/9/157 148/7/157 145/6/157
f 150/9/158 152/10/158 153/11/158
f 149/4/159 151/12/159 147/13/159
f 154/14/160 151/12/160 153/11/160
f 154/15/161 155/5/161 146/3/161 156/2/161
f 153/16/162 152/17/162 155/5/162
f 150/9/163 144/18/163 152/10/163
f 147/13/164 151/12/164 154/15/164 156/2/164
f 144/19/165 145/6/165 155/5/165 152/17/165
f 148/7/166 150/9/166 153/11/166 151/12/166
f 154/15/167 153/16/167 155/5/167
f 146/3/168 148/7/168 151/12/168 149/4/168
f 160/1/169 169/2/169 159/3/169 162/4/169
f 159/3/170 168/5/170 158/6/170 161/7/170
f 157/8/171 163/9/171 161/7/171 158/6/171
f 163/9/172 165/10/172 166/11/172
f 162/4/173 164/12/173 160/13/173
f 167/14/174 164/12/174 166/11/174
f 167/15/175 168/5/175 159/3/175 169/2/175
f 166/16/176 165/17/176 168/5/176
f 163/9/177 157/18/177 165/10/177
f 160/13/178 164/12/178 167/15/178 169/2/178
f 157/19/179 158/6/179 168/5/179 165/17/179
f 161/7/180 163/9/180 166/11/180 164/12/180
f 167/15/181 166/16/181 168/5/181
f 159/3/182 161/7/182 164/12/182 162/4/182
f 173/1/1 182/2/1 172/3/1 175/4/1
f 172/3/2 181/5/2 171/6/2 174/7/2
f 170/8/3 176/9/3 174/7/3 171/6/3
f 176/9/4 178/10/4 179/11/4
f 175/4/5 177/12/5 173/13/5
f 180/14/6 177/12/6 179/11/6
f 180/15/7 181/5/7 172/3/7 182/2/7
f 179/16/8 178/17/8 181/5/8
f 176/9/9 170/18/9 178/10/9
f 173/13/10 177/12/10 180/15/10 182/2/10
f 170/19/11 171/6/11 181/5/11 178/17/11
f 174/7/12 176/9/12 179/11/12 177/12/12
f 180/15/13 179/16/13 181/5/13
f 172/3/14 174/7/14 177/12/14 175/4/14
f 186/1/15 195/2/15 185/3/15 188/4/15
f 185/3/16 194/5/16 184/6/16 187/7/16
f 183/8/17 189/9/17 187/7/17 184/6/17
f 189/9/18 191/10/18 192/11/18
f 188/4/19 190/12/19 186/13/19
f 193/14/20 190/12/20 192/11/20
f 193/15/21 194/5/21 185/3/21 195/2/21
f 192/16/22 191/17/22 194/5/22
f 189/9/23 183/18/23 191/10/23
f 186/13/24 190/12/24 193/15/24 195/2/24
f 183/19/25 184/6/25 194/5/25 191/17/25
f 187/7/26 189/9/26 192/11/26 190/12/26
f 193/15/27 192/16/27 194/5/27
f 185/3/28 187/7/28 190/12/28 188/4/28
f 199/1/29 208/2/29 198/3/29 201/4/29
f 198/3/30 207/5/30 197/6/30 200/7/30
f 196/8/31 202/9/31 200/7/31 197/6/31
f 202/9/32 204/10/32 205/11/32
f 201/4/33 203/12/33 199/13/33
f 206/14/34 203/12/34 205/11/34
f 206/15/35 207/5/35 198/3/35 208/2/35
f 205/16/36 204/17/36 207/5/36
f 202/9/37 196/18/37 204/10/37
f 199/13/38 203/12/38 206/15/38 208/2/38
f 196/19/39 197/6/39 207/5/39 204/17/39
f 200/7/40 202/9/40 205/11/40 203/12/40
f 206/15/41 205/16/41 207/5/41
f 198/3/42 200/7/42 203/12/42 201/4/42
f 212/1/43 221/2/43 211/3/43 214/4/43
f 211/3/44 220/5/44 210/6/44 213/7/44
f 209/8/45 215/9/45 213/7/45 210/6/45
f 215/9/46 217/10/46 218/11/46
f 214/4/47 216/12/47 212/13/47
f 219/14/48 216/12/48 218/11/48
f 219/15/49 220/5/49 211/3/49 221/2/49
f 218/16/50 217/17/50 220/5/50
f 215/9/51 209/18/51 217/10/51
f 212/13/52 216/12/52 219/15/52 221/2/52
f 209/19/53 210/6/53 220/5/53 217/17/53
f 213/7/54 215/9/54 218/11/54 216/12/54
f 219/15/55 218/16/55 220/5/55
f 211/3/56 213/7/56 216/12/56 214/4/56
f 225/1/57 234/2/57 224/3/57 227/4/57
f 224/3/58 233/5/58 223/6/58 226/7/58
f 222/8/59 228/9/59 226/7/59 223/6/59
f 228/9/60 230/10/60 231/11/60
f 227/4/61 229/12/61 225/13/61
f 232/14/62 229/12/62 231/11/62
f 232/15/63 233/5/63 224/3/63 234/2/63
f 231/16/64 230/17/64 233/5/64
f 228/9/65 222/18/65 230/10/65
f 225/13/66 229/12/66 232/15/66 234/2/66
f 222/19/67 223/6/67 233/5/67 230/17/67
f 226/7/68 228/9/68 231/11/68 229/12/68
f 232/15/69 231/16/69 233/5/69
f 224/3/70 226/7/70 229/12/70 227/4/70
f 238/1/71 247/2/71 237/3/71 240/4/71
f 237/3/72 246/5/72 236/6/72 239/7/72
f 235/8/73 241/9/73 239/7/73 236/6/73
f 241/9/74 243/10/74 244/11/74
f 240/4/75 242/12/75 238/13/75
f 245/14/76 242/12/76 244/11/76
f 245/15/77 246/5/77 237/3/77 247/2/77
f 244/16/78 243/17/78 246/5/78
f 241/9/79 235/18/79 243/10/79
f 238/13/80 242/12/80 245/15/80 247/2/80
f 235/19/81 236/6/81 246/5/81 243/17/81
f 239/7/82 241/9/82 244/11/82 242/12/82
f 245/15/83 244/16/83 246/5/83
f 237/3/84 239/7/84 242/12/84 240/4/84
f 251/1/85 260/2/85 250/3/85 253/4/85
f 250/3/86 259/5/86 249/6/86 252/7/86
f 248/8/87 254/9/87 252/7/87 249/6/87
f 254/9/88 256/10/88 257/11/88
f 253/4/89 255/12/89 251/13/89
f 258/14/90 255/12/90 257/11/90
f 258/15/91 259/5/91 250/3/91 260/2/91
f 257/16/92 256/17/92 259/5/92
f 254/9/93 248/18/93 256/10/93
f 251/13/94 255/12/94 258/15/94 260/2/94
f 248/19/95 249/6/95 259/5/95 256/17/95
f 252/7/96 254/9/96 257/11/96 255/12/96
f 258/15/97 257/16/97 259/5/97
f 250/3/98 252/7/98 255/12/98 253/4/98
f 264/1/99 273/2/99 263/3/99 266/4/99
f 263/3/100 272/5/100 262/6/100 265/7/100
f 261/8/101 267/9/101 265/7/101 262/6/101
f 267/9/102 269/10/102 270/11/102
f 266/4/103 268/12/103 264/13/103
f 271/14/104 268/12/104 270/11/104
f 271/15/105 272/5/105 263/3/105 273/2/105
f 270/16/106 269/17/106 272/5/106
f 267/9/107 261/18/107 269/10/107
f 264/13/108 268/12/108 271/15/108 273/2/108
f 261/19/109 262/6/109 272/5/109 269/17/109
f 265/7/110 267/9/110 270/11/110 268/12/110
f 271/15/111 270/16/111 272/5/111
f 263/3/112 265/7/112 268/12/112 266/4/112
f 277/1/113 286/2/113 276/3/113 279/4/113
f 276/3/114 285/5/114 275/6/114 278/7/114
f 274/8/115 280/9/115 278/7/115 275/6/115
f 280/9/116 282/10/116 283/11/116
f 279/4/117 281/12/117 277/13/117
f 284/14/118 281/12/118 283/11/118
f 284/15/119 285/5/119 276/3/119 286/2/119
f 283/16/120 282/17/120 285/5/120
f 280/9/121 274/18/121 282/10/121
f 277/13/122 281/12/122 284/15/122 286/2/122
f 274/19/123 275/6/123 285/5/123 282/17/123
f 278/7/124 280/9/124 283/11/124 281/12/124
f 284/15/125 283/16/125 285/5/125
f 276/3/126 278/7/126 281/12/126 279/4/126
f 290/1/127 299/2/127 289/3/127 292/4/127
f 289/3/128 298/5/128 288/6/128 291/7/128
f 287/8/129 293/9/129 291/7/129 288/6/129
f 293/9/130 295/10/130 296/11/130
f 292/4/131 294/12/131 290/13/131
f 297/14/132 294/12/132 296/11/132
f 297/15/133 298/5/133 289/3/133 299/2/133
f 296/16/134 295/17/134 298/5/134
f 293/9/135 287/18/135 295/10/135
f 290/13/136 294/12/136 297/15/136 299/2/136
f 287/19/137 288/6/137 298/5/137 295/17/137
f 291/7/138 293/9/138 296/11/138 294/12/138
f 297/15/139 296/16/139 298/5/139
f 289/3/140 291/7/140 294/12/140 292/4/140
f 303/1/141 312/2/141 302/3/141 305/4/141
f 302/3/142 311/5/142 301/6/142 304/7/142
f 300/8/143 306/9/143 304/7/143 301/6/143
f 306/9/144 308/10/144 309/11/144
f 305/4/145 307/12/145 303/13/145
f 310/14/146 307/12/146 309/11/146
f 310/15/183 311/5/183 302/3/183 312/2/183
f 309/16/148 308/17/148 311/5/148
f 306/9/149 300/18/149 308/10/149
f 303/13/150 307/12/150 310/15/150 312/2/150
f 300/19/151 301/6/151 311/5/151 308/17/151
f 304/7/152 306/9/152 309/11/152 307/12/152
f 310/15/184 309/16/184 311/5/184
f 302/3/154 304/7/154 307/12/154 305/4/154
f 316/1/155 325/2/155 315/3/155 318/4/155
f 315/3/156 324/5/156 314/6/156 317/7/156
f 313/8/157 319/9/157 317/7/157 314/6/157
f 319/9/158 321/10/158 322/11/158
f 318/4/159 320/12/159 316/13/159
f 323/14/160 320/12/160 322/11/160
f 323/15/161 324/5/161 315/3/161 325/2/161
f 322/16/162 321/17/162 324/5/162
f 319/9/163 313/18/163 321/10/163
f 316/13/164 320/12/164 323/15/164 325/2/164
f 313/19/165 314/6/165 324/5/165 321/17/165
f 317/7/166 319/9/166 322/11/166 320/12/166
f 323/15/167 322/16/167 324/5/167
f 315/3/168 317/7/168 320/12/168 318/4/168
f 329/1/169 338/2/169 328/3/169 331/4/169
f 328/3/170 337/5/170 327/6/170 330/7/170
f 326/8/171 332/9/171 330/7/171 327/6/171
f 332/9/172 334/10/172 335/11/172
f 331/4/173 333/12/173 329/13/173
f 336/14/174 333/12/174 335/11/174
f 336/15/175 337/5/175 328/3/175 338/2/175
f 335/16/176 334/17/176 337/5/176
f 332/9/177 326/18/177 334/10/177
f 329/13/178 333/12/178 336/15/178 338/2/178
f 326/19/179 327/6/179 337/5/179 334/17/179
f 330/7/180 332/9/180 335/11/180 333/12/180
f 336/15/181 335/16/181 337/5/181
f 328/3/182 330/7/182 333/12/182 331/4/182
usemtl slavia_stem
f 345/20/185 339/20/185 340/20/185 341/20/185 342/20/185 343/20/185 344/20/185
f 347/20/186 342/20/186 341/20/186 346/20/186
f 349/20/187 340/20/187 339/20/187 348/20/187
f 346/20/188 341/20/188 340/20/188 349/20/188
f 351/20/189 344/20/189 343/20/189 350/20/189
f 352/20/190 345/20/190 344/20/190 351/20/190
f 350/20/191 343/20/191 342/20/191 347/20/191
f 348/20/192 339/20/192 345/20/192 352/20/192
f 346/21/193 349/22/193 348/23/193 352/24/193 351/25/193 350/26/193 347/27/193
