# Blender 5.2.0 LTS
# www.blender.org
mtllib wvc.mdma.mtl
o Heart.1
v -0.152307 1.834471 1.019930
v 0.166516 1.513478 0.628642
v 0.159887 1.518638 1.469599
v 0.479093 1.197347 1.029786
v -0.205704 1.888973 0.677590
v -0.207772 1.890584 0.940041
v 0.094017 1.586821 0.524221
v -0.092282 1.774809 0.521314
v 0.426942 1.250880 0.529418
v 0.240639 1.438870 0.526510
v 0.535804 1.140266 0.951648
v 0.537871 1.138656 0.689197
v -0.064611 1.933541 1.028505
v 0.260432 1.606317 0.611865
v 0.253535 1.611684 1.486751
v 0.578830 1.284266 1.038548
v -0.001932 1.871239 0.509450
v 0.191423 1.676131 0.512467
v -0.122545 1.992147 0.945064
v -0.120396 1.990476 0.672676
v 0.640208 1.222976 0.684549
v 0.638060 1.224647 0.956937
v 0.330989 1.535297 0.514647
v 0.524344 1.340189 0.517665
v 0.059631 1.395078 -0.266162
v 0.024077 1.447005 -0.323279
v 0.112024 1.358261 -0.321906
v 0.329779 1.749970 -0.322668
v 0.381282 1.713847 -0.265518
v 0.417728 1.661226 -0.321295
v 0.224648 1.228522 -0.240661
v 0.197843 1.271641 -0.308644
v 0.283909 1.184751 -0.283127
v 0.546300 1.547293 -0.240019
v 0.589612 1.487717 -0.282516
v 0.503547 1.574607 -0.308034
v 0.382961 1.068649 -0.170300
v 0.366241 1.101608 -0.246535
v 0.447120 1.019910 -0.197855
v 0.704614 1.387420 -0.169657
v 0.752824 1.322875 -0.197244
v 0.671945 1.404574 -0.245924
v 0.528489 0.921601 -0.057779
v 0.522803 0.943435 -0.139337
v 0.595386 0.870069 -0.069362
v 0.850142 1.240373 -0.057137
v 0.901091 1.173036 -0.068752
v 0.828508 1.246402 -0.138726
v 0.655638 0.793032 0.092574
v 0.661510 0.803206 0.008830
v 0.723007 0.740993 0.097408
v 0.974899 1.114219 0.090391
v 1.028712 1.043956 0.098019
v 0.967214 1.106171 0.009441
v 0.759520 0.687878 0.274986
v 0.777033 0.686306 0.192272
v 0.825080 0.637635 0.296050
v 1.084762 1.003014 0.283355
v 1.130786 0.940601 0.296660
v 1.082737 0.989271 0.192884
v 0.838357 0.607939 0.488432
v 0.864931 0.597229 0.403940
v 0.897685 0.563971 0.518930
v 1.156899 0.929868 0.478740
v 1.203389 0.866935 0.519540
v 1.170634 0.900194 0.404552
v 0.921826 0.539397 0.635699
v 0.938027 0.522829 0.757481
v 0.880800 0.564742 0.693520
v 1.204221 0.881703 0.707615
v 1.243731 0.825794 0.758091
v 1.227531 0.842363 0.636310
v 0.896503 0.548436 0.946377
v 0.945536 0.515031 0.878642
v 0.944559 0.515792 1.002537
v 1.218657 0.866714 0.940591
v 1.250263 0.818759 1.003148
v 1.251239 0.817998 0.879254
v 0.878899 0.565788 1.172417
v 0.935143 0.525074 1.123435
v 0.917029 0.543133 1.244681
v 1.200551 0.884559 1.173059
v 1.222733 0.846098 1.245292
v 1.240847 0.828040 1.124046
v 0.828949 0.615784 1.395444
v 0.891050 0.569133 1.360668
v 0.856493 0.603797 1.474607
v 1.150601 0.934555 1.396086
v 1.162198 0.906761 1.475218
v 1.196754 0.872099 1.361280
v 0.749075 0.696009 1.600457
v 0.814953 0.645519 1.581227
v 0.765282 0.695454 1.683480
v 1.070725 1.014780 1.601099
v 1.070985 0.998420 1.684088
v 1.120657 0.948484 1.581838
v 0.642343 0.803380 1.779579
v 0.709773 0.751293 1.776633
v 0.646895 0.814582 1.863269
v 0.963992 1.122152 1.780222
v 0.952600 1.117549 1.863880
v 1.015477 1.054259 1.777245
v 0.512856 0.933771 1.925928
v 0.579555 0.882393 1.939381
v 0.505887 0.956604 2.007071
v 0.834507 1.252542 1.926570
v 0.811591 1.259570 2.007682
v 0.885259 1.185359 1.939991
v 0.368783 1.078954 2.031538
v 0.429300 1.033781 2.063211
v 0.347675 1.116061 2.109355
v 0.687243 1.400941 2.034521
v 0.653378 1.419027 2.109967
v 0.735005 1.336746 2.063822
v 0.264786 1.199637 2.143369
v 0.178338 1.286825 2.166193
v 0.198761 1.250385 2.101264
v 0.527858 1.561647 2.099924
v 0.484040 1.589791 2.166804
v 0.570488 1.502603 2.143980
v 0.044529 1.405979 2.120195
v 0.092331 1.373590 2.176773
v 0.004383 1.462334 2.175400
v 0.362479 1.728484 2.120266
v 0.310089 1.765299 2.176011
v 0.398035 1.676555 2.177383
v -0.124188 1.576267 2.094124
v -0.081436 1.548952 2.162139
v -0.167501 1.635842 2.136622
v 0.197463 1.895038 2.094767
v 0.138203 1.938809 2.137232
v 0.224269 1.851918 2.162750
v -0.282501 1.736141 2.023762
v -0.249834 1.718986 2.100029
v -0.330714 1.800683 2.051348
v 0.039148 2.054910 2.024404
v -0.025009 2.103651 2.051959
v 0.055869 2.021952 2.100640
v -0.428031 1.883188 1.911243
v -0.406397 1.877159 1.992831
v -0.478978 1.950523 1.922857
v -0.106378 2.201958 1.911885
v -0.173275 2.253490 1.923468
v -0.100693 2.180125 1.993442
v -0.555180 2.011757 1.760887
v -0.545103 2.017389 1.844663
v -0.606600 2.079604 1.756086
v -0.233524 2.330528 1.761530
v -0.300897 2.382567 1.756698
v -0.239399 2.320355 1.845274
v -0.659061 2.116911 1.578477
v -0.660626 2.134288 1.661223
v -0.708673 2.182960 1.557445
v -0.337410 2.435683 1.579119
v -0.402971 2.485926 1.558055
v -0.354922 2.437255 1.661833
v -0.735688 2.194606 1.371021
v -0.748524 2.223366 1.449554
v -0.781277 2.256624 1.334565
v -0.414035 2.513377 1.371662
v -0.475574 2.559589 1.335175
v -0.442821 2.526332 1.450165
v -0.782109 2.241856 1.146489
v -0.805419 2.281196 1.217795
v -0.821620 2.297767 1.096013
v -0.460457 2.560627 1.147133
v -0.515917 2.600731 1.096625
v -0.499716 2.584163 1.218406
v -0.796544 2.256846 0.913513
v -0.829128 2.305563 0.974851
v -0.828153 2.304801 0.850957
v -0.474893 2.575616 0.914156
v -0.522448 2.607767 0.851567
v -0.523424 2.608529 0.975462
v -0.778440 2.238999 0.681045
v -0.818735 2.295520 0.730059
v -0.800622 2.277461 0.608812
v -0.456788 2.557771 0.681687
v -0.494916 2.580429 0.609423
v -0.513032 2.598484 0.730670
v -0.728491 2.189004 0.458019
v -0.774643 2.251462 0.492825
v -0.740087 2.216798 0.378887
v -0.406837 2.507776 0.458661
v -0.434382 2.519763 0.379497
v -0.468941 2.554428 0.493436
v -0.648615 2.108778 0.253006
v -0.698545 2.175076 0.272266
v -0.648874 2.125141 0.170015
v -0.326962 2.427550 0.253648
v -0.343170 2.428105 0.170626
v -0.392842 2.478040 0.272878
v -0.541883 2.001407 0.073883
v -0.593367 2.069300 0.076860
v -0.530489 2.006011 -0.009776
v -0.218725 2.318663 0.071996
v -0.224784 2.308977 -0.009166
v -0.287663 2.372266 0.077471
v -0.412397 1.871018 -0.072466
v -0.463146 1.938200 -0.085887
v -0.389480 1.863990 -0.153577
v -0.094769 2.193843 -0.068134
v -0.083776 2.166957 -0.152967
v -0.157444 2.241167 -0.085275
v -0.265132 1.722619 -0.180416
v -0.312894 1.786813 -0.209717
v -0.231268 1.704533 -0.255862
v 0.058722 2.039169 -0.180678
v 0.074436 2.007498 -0.255250
v -0.007189 2.089778 -0.209107
v -0.105746 1.561910 -0.245819
v -0.148377 1.620955 -0.289876
v -0.061931 1.533770 -0.312700
v 0.243773 1.836735 -0.312088
v 0.157326 1.923923 -0.289265
v 0.215904 1.880682 -0.245176
v -0.157085 1.830412 1.068446
v -0.191148 1.864872 1.019384
v -0.152307 1.834471 1.019930
v 0.145472 1.526054 0.555577
v 0.179916 1.491296 0.556114
v 0.166516 1.513478 0.628642
v 0.138078 1.531808 1.493584
v 0.159887 1.518638 1.469599
v 0.172524 1.497051 1.494122
v 0.479093 1.197347 1.029786
v 0.509143 1.158234 1.030315
v 0.474315 1.193290 1.078302
v -0.216930 1.891581 0.638994
v -0.205704 1.888973 0.677590
v -0.234614 1.909317 0.697301
v -0.207772 1.890584 0.940041
v -0.219605 1.893662 0.978397
v -0.236367 1.910679 0.919553
v 0.117014 1.554842 0.514589
v 0.094017 1.586821 0.524221
v 0.075625 1.596651 0.489678
v -0.092282 1.774809 0.521314
v -0.123910 1.797951 0.510827
v -0.082139 1.755847 0.487216
v 0.449935 1.218902 0.519786
v 0.426942 1.250880 0.529418
v 0.408548 1.260710 0.494875
v 0.240639 1.438870 0.526510
v 0.209011 1.462011 0.516026
v 0.250782 1.419907 0.492412
v 0.538238 1.128947 0.990225
v 0.535804 1.140266 0.951648
v 0.555923 1.111209 0.931920
v 0.537871 1.138656 0.689197
v 0.540913 1.126866 0.650824
v 0.557674 1.109845 0.709668
v 0.145640 1.315703 0.492201
v 0.103868 1.357809 0.515815
v 0.107068 1.345896 0.457342
v 0.074772 1.387095 0.555905
v 0.040327 1.421852 0.555367
v 0.053346 1.399968 0.531365
v 0.476251 0.972979 0.676320
v 0.452530 1.005643 0.709459
v 0.435769 1.022664 0.650614
v 0.433096 1.024746 0.990015
v 0.450778 1.007007 0.931709
v 0.473756 0.974952 0.975924
v 0.403997 1.054031 1.030105
v 0.402595 1.046559 1.083482
v 0.369170 1.089087 1.078092
v 0.344791 1.114701 0.519576
v 0.303404 1.156507 0.494664
v 0.326873 1.124097 0.460774
v -0.341510 1.806479 0.919343
v -0.324749 1.789459 0.978186
v -0.370644 1.826999 0.967478
v -0.322074 1.787377 0.638785
v -0.339757 1.805114 0.697091
v -0.368128 1.825038 0.648176
v -0.296291 1.760671 1.019174
v -0.262228 1.726211 1.068237
v -0.301070 1.756611 1.067691
v 0.011868 1.450643 0.514379
v -0.029517 1.492447 0.489468
v 0.000802 1.453125 0.455684
v 0.032934 1.427607 1.493374
v 0.067382 1.392849 1.493910
v 0.056732 1.394681 1.560404
v -0.187284 1.651644 0.487004
v -0.229054 1.693748 0.510619
v -0.225854 1.681836 0.452147
v -0.062001 1.936569 1.060072
v -0.064611 1.933541 1.028505
v -0.084156 1.958980 1.028161
v 0.252461 1.620163 0.564355
v 0.260432 1.606317 0.611865
v 0.274865 1.597557 0.564704
v 0.245070 1.625918 1.502362
v 0.267472 1.603311 1.502711
v 0.253535 1.611684 1.486751
v 0.581439 1.287292 1.070116
v 0.604092 1.264493 1.038904
v 0.578830 1.284266 1.038548
v -0.016784 1.891957 0.502641
v -0.001932 1.871239 0.509450
v 0.010383 1.864571 0.487284
v 0.191423 1.676131 0.512467
v 0.212096 1.661000 0.506215
v 0.185177 1.688191 0.490012
v -0.124522 1.999817 0.970022
v -0.122545 1.992147 0.945064
v -0.135424 2.010888 0.931749
v -0.120396 1.990476 0.672676
v -0.121980 1.997837 0.647584
v -0.133483 2.009377 0.685507
v 0.647903 1.220973 0.659603
v 0.640208 1.222976 0.684549
v 0.658805 1.209904 0.697875
v 0.638060 1.224647 0.956937
v 0.645363 1.222952 0.982039
v 0.656864 1.211413 0.944116
v 0.316137 1.556014 0.507839
v 0.330989 1.535297 0.514647
v 0.343304 1.528630 0.492481
v 0.524344 1.340189 0.517665
v 0.545018 1.325058 0.511412
v 0.518102 1.352249 0.495209
v -0.016306 2.107064 0.970238
v -0.027207 2.118134 0.931966
v -0.040438 2.137146 0.963286
v -0.025265 2.116622 0.685723
v -0.013762 2.105087 0.647800
v -0.037992 2.135241 0.652847
v 0.046216 2.043817 1.060288
v 0.024060 2.066228 1.028378
v 0.026671 2.069255 1.059944
v 0.091432 1.999205 0.502858
v 0.118599 1.971817 0.487500
v 0.097827 1.998536 0.465668
v 0.360679 1.727411 0.564571
v 0.383083 1.704805 0.564920
v 0.374865 1.718843 0.548971
v 0.320314 1.768246 0.506431
v 0.319407 1.774948 0.469095
v 0.293393 1.795439 0.490229
v 0.626316 1.459497 0.495426
v 0.653235 1.432305 0.511628
v 0.654410 1.436908 0.473504
v 0.424355 1.663264 0.508055
v 0.451523 1.635877 0.492696
v 0.432154 1.661181 0.470035
v 0.375690 1.710559 1.502928
v 0.353287 1.733166 1.502578
v 0.366974 1.724986 1.550100
v 0.712309 1.371742 1.039121
v 0.689655 1.394541 1.070332
v 0.714918 1.374768 1.070687
v 0.783399 1.306416 0.659141
v 0.756120 1.328222 0.659818
v 0.767023 1.317152 0.698090
v 0.765081 1.318661 0.944333
v 0.753580 1.330199 0.982255
v 0.780973 1.308280 0.979673
vn -0.7103 -0.7039 -0.0013
vn 0.7103 0.7039 0.0013
vn -0.6949 -0.6917 -0.1963
vn 0.6983 0.6891 -0.1938
vn -0.6684 -0.7185 -0.1922
vn 0.7249 0.6623 -0.1897
vn -0.6430 -0.7442 -0.1808
vn 0.7503 0.6366 -0.1782
vn -0.6196 -0.7679 -0.1624
vn 0.7737 0.6130 -0.1599
vn -0.5993 -0.7886 -0.1378
vn 0.7937 0.5933 -0.1343
vn -0.5826 -0.8055 -0.1080
vn 0.8110 0.5755 -0.1056
vn -0.5686 -0.8192 -0.0750
vn 0.8240 0.5619 -0.0722
vn -0.5629 -0.8257 -0.0375
vn 0.8308 0.5555 -0.0349
vn -0.5624 -0.8268 0.0006
vn 0.8331 0.5532 0.0032
vn -0.5636 -0.8251 0.0387
vn 0.8301 0.5561 0.0412
vn -0.5717 -0.8170 0.0752
vn 0.8220 0.5641 0.0777
vn -0.5845 -0.8041 0.1087
vn 0.8091 0.5771 0.1112
vn -0.6017 -0.7867 0.1380
vn 0.7919 0.5943 0.1405
vn -0.6225 -0.7657 0.1620
vn 0.7710 0.6153 0.1645
vn -0.6468 -0.7416 0.1782
vn 0.7472 0.6391 0.1822
vn -0.6717 -0.7159 0.1905
vn 0.7216 0.6649 0.1929
vn -0.6981 -0.6888 0.1955
vn 0.6950 0.6917 0.1963
vn -0.7248 -0.6623 0.1897
vn 0.6684 0.7185 0.1922
vn -0.7503 -0.6366 0.1782
vn 0.6430 0.7442 0.1807
vn -0.7737 -0.6130 0.1599
vn 0.6197 0.7679 0.1624
vn -0.7942 -0.5924 0.1354
vn 0.5993 0.7886 0.1378
vn -0.8109 -0.5755 0.1055
vn 0.5826 0.8055 0.1080
vn -0.8233 -0.5631 0.0716
vn 0.5703 0.8181 0.0741
vn -0.8308 -0.5555 0.0349
vn 0.5630 0.8256 0.0374
vn -0.8331 -0.5532 -0.0032
vn 0.5607 0.8280 -0.0007
vn -0.8301 -0.5561 -0.0412
vn 0.5636 0.8251 -0.0387
vn -0.8220 -0.5641 -0.0777
vn 0.5717 0.8170 -0.0752
vn -0.8091 -0.5771 -0.1112
vn 0.5845 0.8041 -0.1087
vn -0.7919 -0.5943 -0.1406
vn 0.6010 0.7871 -0.1388
vn -0.7710 -0.6153 -0.1645
vn 0.6225 0.7657 -0.1620
vn -0.7472 -0.6391 -0.1822
vn 0.6466 0.7416 -0.1787
vn -0.7216 -0.6649 -0.1929
vn 0.6717 0.7159 -0.1904
vn -0.6853 -0.7062 -0.1777
vn -0.0255 0.0278 -0.9993
vn 0.0430 -0.0414 -0.9982
vn 0.7127 0.6793 -0.1752
vn 0.1111 -0.1101 -0.9877
vn 0.1781 -0.1778 -0.9678
vn -0.6616 -0.7302 -0.1706
vn 0.7364 0.6553 -0.1681
vn 0.2435 -0.2438 -0.9387
vn 0.3067 -0.3076 -0.9007
vn -0.6393 -0.7528 -0.1570
vn 0.7588 0.6328 -0.1544
vn 0.3670 -0.3686 -0.8541
vn 0.4239 -0.4261 -0.7993
vn 0.4238 -0.4261 -0.7993
vn -0.6193 -0.7731 -0.1373
vn 0.7788 0.6126 -0.1348
vn 0.4768 -0.4796 -0.7367
vn 0.5252 -0.5286 -0.6669
vn -0.6024 -0.7903 -0.1125
vn 0.7948 0.5970 -0.1085
vn 0.7949 0.5970 -0.1085
vn 0.5686 -0.5726 -0.5906
vn 0.6066 -0.6111 -0.5085
vn -0.5891 -0.8037 -0.0834
vn 0.8104 0.5801 -0.0820
vn 0.6388 -0.6437 -0.4213
vn 0.6648 -0.6702 -0.3299
vn -0.5771 -0.8150 -0.0522
vn 0.8182 0.5729 -0.0486
vn 0.6844 -0.6901 -0.2352
vn 0.6973 -0.7033 -0.1381
vn -0.5786 -0.8154 -0.0166
vn -0.5786 -0.8155 -0.0166
vn 0.8227 0.5684 -0.0144
vn 0.8226 0.5684 -0.0144
vn 0.7034 -0.7097 -0.0396
vn 0.7026 -0.7091 0.0594
vn -0.5760 -0.8172 0.0179
vn 0.8224 0.5686 0.0204
vn 0.8223 0.5686 0.0204
vn 0.6949 -0.7015 0.1577
vn 0.6805 -0.6871 0.2546
vn 0.6805 -0.6871 0.2545
vn -0.5810 -0.8122 0.0520
vn -0.5810 -0.8122 0.0519
vn -0.5811 -0.8122 0.0519
vn 0.8173 0.5736 0.0545
vn 0.6594 -0.6660 0.3488
vn 0.6318 -0.6384 0.4396
vn -0.5906 -0.8026 0.0840
vn 0.8077 0.5832 0.0865
vn 0.5982 -0.6046 0.5260
vn 0.5587 -0.5650 0.6071
vn -0.6043 -0.7887 0.1127
vn 0.7939 0.5970 0.1152
vn 0.5139 -0.5200 0.6823
vn 0.4643 -0.4700 0.7507
vn -0.6217 -0.7712 0.1371
vn -0.6217 -0.7712 0.1370
vn 0.7765 0.6145 0.1396
vn 0.7765 0.6145 0.1395
vn 0.4102 -0.4156 0.8118
vn 0.3523 -0.3572 0.8650
vn -0.6420 -0.7506 0.1561
vn 0.7561 0.6349 0.1586
vn 0.2911 -0.2956 0.9099
vn 0.2272 -0.2312 0.9460
vn -0.6654 -0.7277 0.1664
vn -0.6654 -0.7277 0.1665
vn 0.7335 0.6577 0.1716
vn 0.7335 0.6576 0.1716
vn 0.1612 -0.1647 0.9731
vn 0.0938 -0.0966 0.9909
vn -0.6879 -0.7036 0.1784
vn -0.6878 -0.7036 0.1785
vn 0.7096 0.6817 0.1780
vn 0.7096 0.6817 0.1781
vn 0.0255 -0.0278 0.9993
vn -0.0430 0.0414 0.9982
vn -0.7127 -0.6793 0.1752
vn 0.6853 0.7062 0.1777
vn -0.1111 0.1101 0.9877
vn -0.1781 0.1778 0.9678
vn -0.7364 -0.6553 0.1680
vn 0.6616 0.7302 0.1706
vn -0.2435 0.2438 0.9387
vn -0.3067 0.3076 0.9007
vn -0.7588 -0.6328 0.1544
vn 0.6393 0.7528 0.1570
vn -0.3670 0.3686 0.8541
vn -0.4239 0.4261 0.7993
vn -0.7788 -0.6125 0.1348
vn -0.7789 -0.6125 0.1348
vn -0.7788 -0.6126 0.1348
vn 0.6193 0.7731 0.1373
vn 0.6193 0.7731 0.1374
vn -0.4768 0.4796 0.7367
vn -0.5252 0.5286 0.6669
vn -0.7959 -0.5954 0.1100
vn -0.7958 -0.5954 0.1100
vn 0.6024 0.7903 0.1125
vn 0.6023 0.7903 0.1125
vn -0.5686 0.5726 0.5906
vn -0.6066 0.6111 0.5085
vn -0.8091 -0.5820 0.0809
vn 0.5891 0.8037 0.0834
vn -0.6388 0.6437 0.4213
vn -0.6648 0.6702 0.3299
vn -0.8182 -0.5729 0.0486
vn 0.5802 0.8129 0.0511
vn 0.5801 0.8129 0.0511
vn -0.6844 0.6901 0.2352
vn -0.6973 0.7033 0.1381
vn -0.8227 -0.5684 0.0144
vn -0.8227 -0.5683 0.0144
vn 0.5757 0.8175 0.0169
vn -0.7034 0.7097 0.0396
vn -0.7026 0.7091 -0.0594
vn -0.8224 -0.5686 -0.0204
vn -0.8223 -0.5686 -0.0204
vn 0.5760 0.8172 -0.0179
vn 0.5760 0.8173 -0.0179
vn 0.5761 0.8172 -0.0179
vn -0.6949 0.7015 -0.1578
vn -0.6805 0.6871 -0.2545
vn -0.6805 0.6871 -0.2546
vn -0.8173 -0.5736 -0.0545
vn -0.8173 -0.5737 -0.0544
vn 0.5811 0.8122 -0.0519
vn 0.5810 0.8122 -0.0519
vn -0.6594 0.6660 -0.3488
vn -0.6318 0.6384 -0.4396
vn -0.8077 -0.5832 -0.0865
vn 0.5906 0.8026 -0.0840
vn -0.5982 0.6046 -0.5260
vn -0.5587 0.5650 -0.6071
vn -0.7939 -0.5970 -0.1152
vn 0.6043 0.7887 -0.1127
vn -0.5139 0.5200 -0.6823
vn -0.4643 0.4700 -0.7507
vn -0.7765 -0.6145 -0.1396
vn 0.6207 0.7718 -0.1384
vn 0.6206 0.7718 -0.1385
vn 0.6207 0.7717 -0.1384
vn -0.4102 0.4155 -0.8118
vn -0.3523 0.3572 -0.8650
vn -0.7561 -0.6349 -0.1586
vn 0.6428 0.7503 -0.1545
vn -0.2911 0.2956 -0.9099
vn -0.2272 0.2312 -0.9460
vn 0.6884 0.7038 -0.1755
vn 0.6645 0.7279 -0.1691
vn -0.7335 -0.6576 -0.1716
vn -0.1612 0.1647 -0.9731
vn -0.0938 0.0967 -0.9909
vn -0.7096 -0.6817 -0.1781
vn -0.7096 -0.6817 -0.1780
vn 0.0430 -0.0413 -0.9982
vn 0.4102 -0.4155 0.8118
vn 0.0938 -0.0967 0.9909
vn -0.6949 0.7016 -0.1577
vn -0.6104 -0.7821 -0.1255
vn -0.7085 -0.7008 0.0834
vn -0.6861 -0.6838 -0.2484
vn -0.7856 -0.6053 -0.1280
vn -0.5280 -0.8437 0.0965
vn -0.5262 -0.8451 -0.0945
vn -0.7565 -0.6128 0.2284
vn -0.6232 -0.7474 0.2302
vn -0.6232 -0.7474 0.2303
vn -0.8483 -0.5201 -0.0991
vn -0.8499 -0.5188 0.0921
vn -0.6733 -0.7308 0.1121
vn -0.6904 -0.6804 0.2459
vn -0.7858 -0.6168 0.0455
vn -0.7802 -0.6238 -0.0468
vn -0.7762 -0.6212 -0.1083
vn -0.7804 -0.6153 -0.1107
vn -0.7749 -0.6229 -0.1073
vn -0.7403 -0.6615 0.1199
vn -0.6259 -0.7785 -0.0469
vn -0.6266 -0.7779 0.0466
vn -0.6104 -0.7821 -0.1256
vn -0.7386 -0.6649 0.1111
vn -0.7064 -0.7016 -0.0938
vn -0.8033 -0.5756 0.1532
vn -0.8032 -0.5758 0.1531
vn -0.8032 -0.5757 0.1531
vn -0.7005 -0.6915 0.1762
vn -0.6126 -0.7804 0.1255
vn -0.7878 -0.6036 0.1230
vn -0.7878 -0.6035 0.1230
vn -0.6126 -0.7803 0.1254
vn -0.5753 -0.8179 0.0005
vn -0.5752 -0.8180 0.0005
vn -0.5813 -0.7978 -0.1603
vn -0.5801 -0.7980 -0.1630
vn -0.5797 -0.7984 -0.1629
vn -0.7821 -0.6130 -0.1121
vn -0.7820 -0.6131 -0.1121
vn -0.8105 -0.5857 -0.0028
vn -0.8107 -0.5855 -0.0028
vn -0.7748 -0.6230 -0.1072
vn 0.0087 -0.0068 -0.9999
vn -0.4897 0.4956 -0.7174
vn -0.4897 0.4955 -0.7174
vn 0.5016 -0.5047 -0.7027
vn 0.5015 -0.5047 -0.7027
vn -0.2754 0.2761 0.9208
vn -0.2754 0.2760 0.9208
vn 0.2594 -0.2636 0.9291
vn 0.2595 -0.2637 0.9291
vn 0.6464 -0.6530 0.3947
vn -0.5753 -0.8180 0.0005
vn 0.6526 -0.6578 -0.3761
vn 0.6526 -0.6577 -0.3761
vn 0.2594 -0.2637 0.9291
vn -0.6464 0.6530 -0.3947
vn -0.8231 -0.5678 -0.0030
vn -0.8231 -0.5679 -0.0030
vn -0.6526 0.6577 0.3762
vn -0.6526 0.6577 0.3761
vn -0.6126 -0.7804 0.1254
vn -0.0087 0.0068 0.9999
vn -0.5015 0.5047 0.7027
vn -0.5015 0.5046 0.7027
vn 0.4897 -0.4956 0.7174
vn 0.4897 -0.4955 0.7174
vn 0.7039 -0.7103 0.0099
vn -0.0088 0.0068 0.9999
vn -0.7039 0.7103 -0.0099
vn 0.7878 0.6035 -0.1230
vn 0.7878 0.6036 -0.1230
vn 0.7070 0.7020 0.0860
vn 0.6904 0.6804 -0.2459
vn 0.6126 0.7804 -0.1254
vn 0.6126 0.7804 -0.1255
vn 0.7526 0.6160 0.2328
vn 0.6192 0.7505 0.2309
vn 0.8500 0.5187 -0.0920
vn 0.8483 0.5202 0.0990
vn 0.5263 0.8451 0.0945
vn 0.5280 0.8438 -0.0965
vn 0.7525 0.6161 0.2327
vn 0.7842 0.6189 -0.0444
vn 0.7826 0.6207 0.0486
vn 0.7367 0.6665 0.1147
vn 0.6861 0.6838 0.2484
vn 0.6708 0.7327 0.1152
vn 0.6732 0.7314 0.1090
vn 0.7366 0.6665 0.1146
vn 0.7085 0.7008 -0.0834
vn 0.6244 0.7797 0.0476
vn 0.6212 0.7821 -0.0495
vn 0.5475 0.8368 -0.0008
vn 0.5480 0.8365 -0.0008
vn 0.5474 0.8369 -0.0008
vn 0.7877 0.6036 -0.1230
vn 0.8231 0.5679 0.0030
vn 0.7836 0.6088 0.1239
vn 0.7835 0.6089 0.1238
vn 0.6104 0.7821 0.1255
vn 0.7856 0.6053 0.1280
vn 0.7856 0.6053 0.1281
vn 0.6975 0.6940 0.1787
vn 0.6975 0.6940 0.1788
vn 0.6218 0.7750 0.1127
vn 0.6219 0.7749 0.1126
vn 0.6221 0.7748 0.1124
vn 0.6965 0.6931 0.1855
vn 0.6966 0.6932 0.1853
vn 0.0088 -0.0068 -0.9999
vn 0.0087 -0.0067 -0.9999
vn -0.2754 0.2760 0.9209
vn 0.8231 0.5679 0.0029
vn 0.6463 -0.6530 0.3947
vn -0.6526 0.6578 0.3761
vn 0.5753 0.8179 -0.0005
vn -0.5016 0.5047 0.7027
vn -0.6023 -0.7903 -0.1125
vn 0.7948 0.5971 -0.1085
vn 0.8104 0.5802 -0.0820
vn -0.5785 -0.8155 -0.0166
vn 0.8227 0.5683 -0.0144
vn 0.6949 -0.7015 0.1578
vn 0.5585 -0.5649 0.6074
vn -0.8092 -0.5820 0.0809
vn -0.8226 -0.5684 0.0144
vn -0.7335 -0.6577 -0.1716
vn -0.6127 -0.7803 0.1254
vn -0.5813 -0.7977 -0.1603
vn -0.8107 -0.5855 -0.0029
vn -0.7747 -0.6232 -0.1069
vn 0.7039 -0.7102 0.0099
vn 0.5476 0.8367 -0.0008
vn 0.7835 0.6090 0.1238
vn 0.6219 0.7750 0.1126
vt 0.375000 0.756466
vt 0.612067 0.987067
vt 0.630173 0.755173
vt 0.383622 0.000000
vt 0.387933 0.000000
vt 0.457882 0.000000
vt 0.862067 0.750000
vt 0.792118 0.750000
vt 0.456009 0.250000
vt 0.383412 0.250000
vt 0.381309 0.250000
vt 0.375000 0.495794
vt 0.618691 0.252103
vt 0.793991 0.500000
vt 0.866588 0.500000
vt 0.750000 0.478043
vt 0.738158 0.488834
vt 0.761842 0.488834
vt 0.238158 0.488834
vt 0.250000 0.478043
vt 0.261842 0.488834
vt 0.794489 0.473661
vt 0.784979 0.486555
vt 0.808209 0.481934
vt 0.294489 0.473661
vt 0.308209 0.481934
vt 0.284979 0.486555
vt 0.837268 0.460684
vt 0.830457 0.475185
vt 0.852339 0.466122
vt 0.337268 0.460684
vt 0.352339 0.466122
vt 0.330457 0.475185
vt 0.876694 0.439611
vt 0.872842 0.455162
vt 0.892535 0.442004
vt 0.376694 0.439611
vt 0.392535 0.442004
vt 0.372842 0.455162
vt 0.911251 0.411251
vt 0.910507 0.427255
vt 0.927255 0.410507
vt 0.410601 0.411784
vt 0.427255 0.410507
vt 0.410507 0.427255
vt 0.939611 0.376694
vt 0.942004 0.392535
vt 0.955162 0.372842
vt 0.440593 0.375228
vt 0.455162 0.372842
vt 0.445778 0.387936
vt 0.961293 0.336130
vt 0.966122 0.352339
vt 0.975185 0.330457
vt 0.460433 0.338096
vt 0.475185 0.330457
vt 0.466122 0.352339
vt 0.981934 0.308209
vt 0.985972 0.290901
vt 0.973156 0.297055
vt 0.473661 0.294489
vt 0.486555 0.284979
vt 0.481934 0.308209
vt 0.977922 0.248770
vt 0.988834 0.261842
vt 0.988834 0.238158
vt 0.478043 0.250000
vt 0.488834 0.238158
vt 0.488834 0.261842
vt 0.973661 0.205511
vt 0.986555 0.215021
vt 0.981934 0.191791
vt 0.473661 0.205511
vt 0.481934 0.191791
vt 0.486555 0.215021
vt 0.960684 0.162732
vt 0.975185 0.169543
vt 0.966122 0.147661
vt 0.460684 0.162732
vt 0.466122 0.147661
vt 0.475185 0.169543
vt 0.939611 0.123306
vt 0.955162 0.127158
vt 0.942004 0.107465
vt 0.439611 0.123306
vt 0.442004 0.107465
vt 0.455162 0.127158
vt 0.911251 0.088749
vt 0.927255 0.089493
vt 0.910507 0.072745
vt 0.411250 0.088749
vt 0.410507 0.072745
vt 0.427255 0.089493
vt 0.876694 0.060389
vt 0.892535 0.057996
vt 0.872842 0.044838
vt 0.376694 0.060389
vt 0.372842 0.044838
vt 0.392535 0.057996
vt 0.838123 0.039773
vt 0.852339 0.033878
vt 0.830457 0.024815
vt 0.337268 0.039316
vt 0.330457 0.024815
vt 0.352339 0.033878
vt 0.802515 0.016339
vt 0.784979 0.013445
vt 0.792488 0.025938
vt 0.294489 0.026339
vt 0.284979 0.013445
vt 0.308209 0.018066
vt 0.750997 0.021859
vt 0.761842 0.011166
vt 0.738158 0.011166
vt 0.250000 0.021957
vt 0.238158 0.011166
vt 0.261842 0.011166
vt 0.705511 0.026339
vt 0.715021 0.013445
vt 0.691791 0.018066
vt 0.205511 0.026339
vt 0.191791 0.018066
vt 0.215021 0.013445
vt 0.662732 0.039316
vt 0.669543 0.024815
vt 0.647661 0.033878
vt 0.162732 0.039316
vt 0.147661 0.033878
vt 0.169543 0.024815
vt 0.623306 0.060389
vt 0.627158 0.044838
vt 0.607465 0.057996
vt 0.123306 0.060389
vt 0.107465 0.057996
vt 0.127158 0.044838
vt 0.588749 0.088749
vt 0.589493 0.072745
vt 0.572745 0.089493
vt 0.088749 0.088749
vt 0.072745 0.089493
vt 0.089493 0.072745
vt 0.560389 0.123306
vt 0.557996 0.107465
vt 0.544838 0.127158
vt 0.060389 0.123306
vt 0.044838 0.127158
vt 0.057996 0.107465
vt 0.539316 0.162732
vt 0.533878 0.147661
vt 0.524815 0.169543
vt 0.039316 0.162732
vt 0.024815 0.169543
vt 0.033878 0.147661
vt 0.526339 0.205511
vt 0.518066 0.191791
vt 0.513445 0.215021
vt 0.026339 0.205511
vt 0.013445 0.215021
vt 0.018066 0.191791
vt 0.521957 0.250000
vt 0.511166 0.238158
vt 0.511166 0.261842
vt 0.021957 0.250000
vt 0.011166 0.261842
vt 0.011166 0.238158
vt 0.526339 0.294489
vt 0.513445 0.284979
vt 0.518066 0.308209
vt 0.026339 0.294489
vt 0.018066 0.308209
vt 0.013445 0.284979
vt 0.539316 0.337268
vt 0.524815 0.330457
vt 0.533878 0.352339
vt 0.039316 0.337268
vt 0.033878 0.352339
vt 0.024815 0.330457
vt 0.560389 0.376694
vt 0.544838 0.372842
vt 0.557996 0.392535
vt 0.060389 0.376694
vt 0.057996 0.392535
vt 0.044838 0.372842
vt 0.588749 0.411251
vt 0.572745 0.410507
vt 0.589493 0.427255
vt 0.089150 0.411738
vt 0.089493 0.427255
vt 0.072745 0.410507
vt 0.623306 0.439611
vt 0.607465 0.442004
vt 0.627158 0.455162
vt 0.122231 0.438894
vt 0.121910 0.452357
vt 0.107465 0.442004
vt 0.662732 0.460684
vt 0.647661 0.466122
vt 0.669543 0.475185
vt 0.163323 0.460863
vt 0.169543 0.475185
vt 0.147661 0.466122
vt 0.705511 0.473661
vt 0.691791 0.481934
vt 0.715021 0.486555
vt 0.215021 0.486555
vt 0.191791 0.481934
vt 0.205511 0.473661
vt 0.007904 0.987605
vt 0.000000 0.512396
vt 0.007904 0.512396
vt 0.976654 0.987604
vt 0.960846 0.512396
vt 0.976654 0.512395
vt 0.945404 0.987604
vt 0.929596 0.512396
vt 0.945404 0.512396
vt 0.914154 0.512396
vt 0.898346 0.987605
vt 0.898346 0.512396
vt 0.882904 0.987605
vt 0.867096 0.512396
vt 0.882904 0.512396
vt 0.851654 0.987605
vt 0.835846 0.512396
vt 0.851654 0.512396
vt 0.820404 0.987604
vt 0.804596 0.512396
vt 0.820404 0.512396
vt 0.789154 0.512396
vt 0.773346 0.987604
vt 0.773346 0.512395
vt 0.757904 0.512396
vt 0.742096 0.987605
vt 0.742096 0.512396
vt 0.726654 0.512395
vt 0.710846 0.987604
vt 0.710846 0.512396
vt 0.695404 0.512396
vt 0.679596 0.987605
vt 0.679596 0.512396
vt 0.664154 0.987604
vt 0.648346 0.512396
vt 0.664154 0.512396
vt 0.632904 0.987605
vt 0.617096 0.512396
vt 0.632904 0.512396
vt 0.601654 0.512396
vt 0.585846 0.987604
vt 0.585846 0.512396
vt 0.570404 0.512396
vt 0.554596 0.987604
vt 0.554596 0.512396
vt 0.539154 0.987604
vt 0.523346 0.512395
vt 0.539154 0.512396
vt 0.507904 0.512396
vt 0.492096 0.987605
vt 0.492096 0.512396
vt 0.476654 0.512395
vt 0.460846 0.987604
vt 0.460846 0.512396
vt 0.445404 0.987604
vt 0.429596 0.512396
vt 0.445404 0.512396
vt 0.414154 0.987604
vt 0.398346 0.512396
vt 0.414154 0.512396
vt 0.382904 0.512396
vt 0.367096 0.987605
vt 0.367096 0.512396
vt 0.351654 0.512396
vt 0.335846 0.987604
vt 0.335846 0.512396
vt 0.320404 0.987604
vt 0.304596 0.512396
vt 0.320404 0.512396
vt 0.289154 0.987604
vt 0.273346 0.512395
vt 0.289154 0.512396
vt 0.257904 0.987605
vt 0.242096 0.512396
vt 0.257904 0.512396
vt 0.226654 0.512395
vt 0.210846 0.987604
vt 0.210846 0.512396
vt 0.195404 0.987604
vt 0.179596 0.512396
vt 0.195404 0.512396
vt 0.164154 0.987604
vt 0.148346 0.512396
vt 0.164154 0.512396
vt 0.132904 0.512396
vt 0.117096 0.987605
vt 0.117096 0.512396
vt 0.101654 0.512396
vt 0.085846 0.987604
vt 0.085846 0.512396
vt 0.070404 0.987604
vt 0.054596 0.512396
vt 0.070404 0.512396
vt 0.039154 0.512396
vt 0.023346 0.987604
vt 0.023346 0.512395
vt 0.992096 0.987605
vt 0.992096 0.512396
vt 0.929596 0.987605
vt 0.835846 0.987604
vt 0.789154 0.987604
vt 0.601654 0.987605
vt 0.523346 0.987604
vt 0.382904 0.987605
vt 0.351654 0.987605
vt 0.273346 0.987604
vt 0.226654 0.987604
vt 0.148346 0.987605
vt 0.101654 0.987605
vt 0.039154 0.987604
vt 0.375000 0.002410
vt 0.625000 0.002410
vt 0.616378 0.000000
vt 0.362067 0.747590
vt 0.384700 0.747590
vt 0.625000 0.747590
vt 0.612067 0.747590
vt 0.465458 0.002410
vt 0.443380 0.002410
vt 0.384145 0.002410
vt 0.612067 0.000000
vt 0.615855 0.002410
vt 0.542118 0.000000
vt 0.534542 0.002410
vt 0.556620 0.002410
vt 0.784542 0.747590
vt 0.806620 0.747590
vt 0.875000 0.747590
vt 0.865855 0.747590
vt 0.637933 0.750000
vt 0.634145 0.747590
vt 0.707882 0.750000
vt 0.715458 0.747590
vt 0.693380 0.747590
vt 0.868141 0.689945
vt 0.875000 0.689945
vt 0.875000 0.687535
vt 0.625000 0.060055
vt 0.625000 0.062465
vt 0.702459 0.687535
vt 0.695666 0.689945
vt 0.715458 0.689945
vt 0.625000 0.689945
vt 0.631859 0.689945
vt 0.625000 0.687535
vt 0.612067 0.689945
vt 0.787775 0.689945
vt 0.806620 0.689945
vt 0.797475 0.687535
vt 0.384145 0.060055
vt 0.375000 0.060055
vt 0.375000 0.062465
vt 0.462225 0.060055
vt 0.443380 0.060055
vt 0.452525 0.062465
vt 0.615855 0.060055
vt 0.362067 0.689945
vt 0.384700 0.689945
vt 0.375000 0.687535
vt 0.554334 0.060055
vt 0.534542 0.060055
vt 0.547475 0.062465
vt 0.125000 0.687535
vt 0.137933 0.689945
vt 0.137933 0.747590
vt 0.125000 0.750000
vt 0.636756 0.301996
vt 0.636756 0.240956
vt 0.845215 0.221089
vt 0.864149 0.241861
vt 0.375000 0.248433
vt 0.625000 0.248433
vt 0.366588 0.501567
vt 0.381309 0.501567
vt 0.616588 0.501567
vt 0.625000 0.501567
vt 0.628365 0.496635
vt 0.539063 0.248433
vt 0.543991 0.250000
vt 0.553423 0.248433
vt 0.616588 0.250000
vt 0.619052 0.248433
vt 0.380948 0.248433
vt 0.460937 0.248433
vt 0.446577 0.248433
vt 0.710937 0.501567
vt 0.706009 0.500000
vt 0.696577 0.501567
vt 0.633412 0.500000
vt 0.630948 0.501567
vt 0.875000 0.501567
vt 0.869052 0.501567
vt 0.789063 0.501567
vt 0.803423 0.501567
vt 0.146332 0.240656
vt 0.143315 0.247939
vt 0.139049 0.241906
vt 0.143315 0.295013
vt 0.146332 0.302296
vt 0.139049 0.301251
vt 0.163358 0.223630
vt 0.157325 0.229663
vt 0.157325 0.223630
vt 0.174351 0.330314
vt 0.179501 0.333331
vt 0.175224 0.337435
vt 0.246983 0.319322
vt 0.253017 0.319322
vt 0.250000 0.322338
vt 0.235991 0.330314
vt 0.234897 0.337441
vt 0.228708 0.333331
vt 0.318366 0.333331
vt 0.325649 0.330314
vt 0.325115 0.337597
vt 0.264009 0.330314
vt 0.271292 0.333331
vt 0.265259 0.337597
vt 0.253017 0.140005
vt 0.246983 0.140005
vt 0.250000 0.130955
vt 0.342675 0.229663
vt 0.336642 0.223630
vt 0.342675 0.223630
vt 0.360242 0.302499
vt 0.355176 0.300787
vt 0.356685 0.295013
vt 0.356685 0.247939
vt 0.353668 0.240656
vt 0.360269 0.241224
vt 0.133412 0.501567
vt 0.125000 0.500000
vt 0.625000 0.560897
vt 0.366588 0.560897
vt 0.375000 0.189103
vt 0.539063 0.189103
vt 0.625000 0.189103
vt 0.446577 0.189103
vt 0.869052 0.560897
vt 0.789063 0.560897
vt 0.696577 0.560897
vt 0.630948 0.560897
vt 0.133412 0.560897
vt 0.875000 0.560897
vt 0.383412 0.560897
vt 0.616588 0.560897
vt 0.460937 0.189103
vt 0.619052 0.189103
vt 0.553423 0.189103
vt 0.380948 0.189103
vt 0.710937 0.560897
vt 0.803423 0.560897
vt 0.387933 1.000000
vt 0.000000 0.987604
vt 0.960846 0.987604
vt 0.914154 0.987604
vt 0.867096 0.987605
vt 0.804596 0.987604
vt 0.757904 0.987605
vt 0.726654 0.987604
vt 0.695404 0.987604
vt 0.648346 0.987605
vt 0.617096 0.987605
vt 0.570404 0.987604
vt 0.507904 0.987605
vt 0.476654 0.987604
vt 0.429596 0.987605
vt 0.398346 0.987605
vt 0.304596 0.987604
vt 0.242096 0.987605
vt 0.179596 0.987605
vt 0.132904 0.987605
vt 0.054596 0.987604
vt 0.674651 0.339890
vt 0.735691 0.339890
vt 0.764309 0.339891
vt 0.823504 0.339891
vt 0.864185 0.299136
vt 0.750000 0.325581
vt 0.655703 0.222008
vt 0.753096 0.128896
s 1
usemtl Material.003
f 3/1/1 2/2/1 4/3/1
f 1/4/1 6/5/1 5/6/1
f 2/7/1 10/7/1 9/8/1
f 3/1/1 1/460/1 2/2/1
f 5/6/1 8/330/1 1/4/1
f 8/330/1 7/328/1 2/320/1
f 1/4/1 8/330/1 2/320/1
f 9/8/1 12/339/1 4/3/1
f 12/339/1 11/337/1 4/3/1
f 4/3/1 2/7/1 9/8/1
usemtl Material.004
f 20/9/2 19/10/2 13/11/2
f 15/12/2 14/13/2 13/11/2
f 24/14/2 23/15/2 14/15/2
f 13/11/2 14/13/2 17/386/2
f 14/13/2 18/388/2 17/386/2
f 17/386/2 20/9/2 13/11/2
f 15/12/2 16/384/2 14/13/2
f 14/15/2 16/384/2 24/14/2
f 16/384/2 22/396/2 21/394/2
f 24/14/2 16/384/2 21/394/2
usemtl Material.005
f 25/16/3 26/17/3 27/18/3
f 28/19/4 29/20/4 30/21/4
f 31/22/5 32/23/5 33/24/5
f 34/25/6 35/26/6 36/27/6
f 37/28/7 38/29/7 39/30/7
f 40/31/8 41/32/8 42/33/8
f 43/34/9 44/35/9 45/36/9
f 46/37/10 47/38/10 48/39/10
f 49/40/11 50/41/11 51/42/11
f 52/43/12 53/44/12 54/45/12
f 55/46/13 56/47/13 57/48/13
f 58/49/14 59/50/14 60/51/14
f 61/52/15 62/53/15 63/54/15
f 64/55/16 65/56/16 66/57/16
f 67/58/17 68/59/17 69/60/17
f 70/61/18 71/62/18 72/63/18
f 73/64/19 74/65/19 75/66/19
f 76/67/20 77/68/20 78/69/20
f 79/70/21 80/71/21 81/72/21
f 82/73/22 83/74/22 84/75/22
f 85/76/23 86/77/23 87/78/23
f 88/79/24 89/80/24 90/81/24
f 91/82/25 92/83/25 93/84/25
f 94/85/26 95/86/26 96/87/26
f 97/88/27 98/89/27 99/90/27
f 100/91/28 101/92/28 102/93/28
f 103/94/29 104/95/29 105/96/29
f 106/97/30 107/98/30 108/99/30
f 109/100/31 110/101/31 111/102/31
f 112/103/32 113/104/32 114/105/32
f 115/106/33 116/107/33 117/108/33
f 118/109/34 119/110/34 120/111/34
f 121/112/35 122/113/35 123/114/35
f 124/115/36 125/116/36 126/117/36
f 127/118/37 128/119/37 129/120/37
f 130/121/38 131/122/38 132/123/38
f 133/124/39 134/125/39 135/126/39
f 136/127/40 137/128/40 138/129/40
f 139/130/41 140/131/41 141/132/41
f 142/133/42 143/134/42 144/135/42
f 145/136/43 146/137/43 147/138/43
f 148/139/44 149/140/44 150/141/44
f 151/142/45 152/143/45 153/144/45
f 154/145/46 155/146/46 156/147/46
f 157/148/47 158/149/47 159/150/47
f 160/151/48 161/152/48 162/153/48
f 163/154/49 164/155/49 165/156/49
f 166/157/50 167/158/50 168/159/50
f 169/160/51 170/161/51 171/162/51
f 172/163/52 173/164/52 174/165/52
f 175/166/53 176/167/53 177/168/53
f 178/169/54 179/170/54 180/171/54
f 181/172/55 182/173/55 183/174/55
f 184/175/56 185/176/56 186/177/56
f 187/178/57 188/179/57 189/180/57
f 190/181/58 191/182/58 192/183/58
f 193/184/59 194/185/59 195/186/59
f 196/187/60 197/188/60 198/189/60
f 199/190/61 200/191/61 201/192/61
f 202/193/62 203/194/62 204/195/62
f 205/196/63 206/197/63 207/198/63
f 208/199/64 209/200/64 210/201/64
f 211/202/65 212/203/65 213/204/65
f 214/205/66 215/206/66 216/207/66
f 27/18/67 31/22/67 25/16/67
f 28/208/68 27/209/69 26/210/68
f 34/25/70 30/21/70 29/20/70
f 36/211/71 33/212/72 32/213/71
f 33/24/73 37/28/73 31/22/73
f 40/31/74 35/26/74 34/25/74
f 42/214/75 39/215/76 38/216/75
f 39/30/77 43/34/77 37/28/77
f 46/37/78 41/32/78 40/31/78
f 44/217/79 47/218/80 45/219/81
f 45/36/82 49/40/82 43/34/82
f 52/43/83 47/38/83 46/37/83
f 54/220/84 51/221/85 50/222/84
f 51/42/86 55/46/86 49/40/86
f 58/49/87 53/44/88 52/43/88
f 60/223/89 57/224/90 56/225/89
f 62/53/91 55/46/91 57/48/91
f 64/55/92 59/50/92 58/49/92
f 66/226/93 63/227/94 62/228/93
f 63/54/95 69/60/95 61/52/95
f 70/61/96 65/56/96 64/55/96
f 67/229/97 71/230/98 68/231/98
f 68/59/99 73/64/100 69/60/99
f 76/67/101 71/62/102 70/61/102
f 74/232/103 77/233/104 75/234/104
f 80/71/105 73/64/105 75/66/105
f 76/67/106 84/75/106 77/68/107
f 80/235/108 83/236/109 81/237/110
f 86/77/111 79/70/112 81/72/113
f 82/73/114 90/81/114 83/74/114
f 86/238/115 89/239/116 87/240/116
f 92/83/117 85/76/117 87/78/117
f 88/79/118 96/87/118 89/80/118
f 96/241/119 93/242/120 92/243/119
f 98/89/121 91/82/121 93/84/121
f 94/85/122 102/93/122 95/86/122
f 102/244/123 99/245/124 98/246/123
f 104/95/125 97/88/126 99/90/126
f 100/91/127 108/99/127 101/92/128
f 104/247/129 107/248/130 105/249/130
f 110/101/131 103/94/131 105/96/131
f 106/97/132 114/105/132 107/98/132
f 110/250/133 113/251/134 111/252/134
f 115/106/135 109/100/136 111/102/136
f 112/103/137 120/111/138 113/104/137
f 120/253/139 116/254/140 115/255/139
f 122/113/141 117/108/142 116/107/142
f 118/109/143 126/117/143 119/110/144
f 122/256/145 125/257/146 123/258/146
f 123/114/147 127/118/147 121/112/147
f 130/121/148 125/116/148 124/115/148
f 128/259/149 131/260/150 129/261/150
f 129/120/151 133/124/151 127/118/151
f 136/127/152 131/122/152 130/121/152
f 138/262/153 135/263/154 134/264/153
f 135/126/155 139/130/155 133/124/155
f 142/133/156 137/128/156 136/127/156
f 144/265/157 141/266/158 140/267/157
f 141/132/159 145/136/160 139/130/161
f 148/139/162 143/134/162 142/133/163
f 146/268/164 149/269/165 147/270/165
f 147/138/166 151/142/167 145/136/166
f 154/145/168 149/140/169 148/139/169
f 152/271/170 155/272/171 153/273/171
f 153/144/172 157/148/172 151/142/172
f 160/151/173 155/146/173 154/145/173
f 162/274/174 159/275/175 158/276/174
f 159/150/176 163/154/176 157/148/176
f 166/157/177 161/152/178 160/151/178
f 168/277/179 165/278/180 164/279/179
f 165/156/181 169/160/181 163/154/182
f 172/163/183 167/158/183 166/157/183
f 174/280/184 171/281/185 170/282/184
f 176/167/186 169/160/187 171/162/187
f 172/163/188 180/171/189 173/164/190
f 176/283/191 179/284/192 177/285/193
f 182/173/194 175/166/194 177/168/195
f 178/169/196 186/177/197 179/170/196
f 186/286/198 183/287/199 182/288/198
f 188/179/200 181/172/200 183/174/200
f 184/175/201 192/183/201 185/176/201
f 192/289/202 189/290/203 188/291/202
f 194/185/204 187/178/204 189/180/204
f 190/181/205 198/189/205 191/182/205
f 194/292/206 197/293/207 195/294/207
f 200/191/208 193/184/208 195/186/208
f 196/187/209 204/195/210 197/188/211
f 200/295/212 203/296/213 201/297/213
f 206/197/214 199/190/214 201/192/214
f 202/193/215 210/201/215 203/194/215
f 210/298/216 207/299/217 206/300/216
f 28/19/218 216/207/218 29/20/218
f 208/199/219 215/206/219 209/200/219
f 212/203/220 205/196/220 207/198/220
f 212/301/221 214/302/222 213/303/222
f 211/202/223 26/17/224 25/16/224
f 30/304/225 32/213/71 27/305/69
f 214/302/222 26/210/68 213/303/222
f 33/212/72 42/214/75 38/216/75
f 41/306/76 44/217/79 39/215/76
f 45/219/81 54/220/84 50/222/84
f 51/221/85 60/223/89 56/225/89
f 59/307/90 62/228/93 57/224/90
f 63/227/94 72/308/97 67/229/97
f 71/230/98 74/232/103 68/231/98
f 77/233/104 80/235/108 75/234/104
f 83/236/109 86/238/115 81/237/110
f 87/240/116 96/241/119 92/243/119
f 93/242/120 102/244/123 98/246/123
f 99/245/124 108/309/226 104/247/129
f 107/248/130 110/250/133 105/249/130
f 111/252/134 120/253/139 115/255/139
f 119/310/227 122/256/145 116/254/140
f 125/257/146 128/259/149 123/258/146
f 131/260/150 134/264/153 129/261/150
f 135/263/154 144/265/157 140/267/157
f 141/266/158 150/311/164 146/268/164
f 147/270/165 156/312/170 152/271/170
f 153/273/171 162/274/174 158/276/174
f 159/275/175 168/277/179 164/279/179
f 167/313/180 170/282/184 165/278/180
f 171/281/185 180/314/228 176/283/191
f 177/285/193 186/286/198 182/288/198
f 183/287/199 192/289/202 188/291/202
f 191/315/203 194/292/206 189/290/203
f 195/294/207 204/316/212 200/295/212
f 203/296/213 206/300/216 201/297/213
f 207/299/217 215/317/221 212/301/221
f 217/318/229 218/318/229 219/4/229
f 220/319/230 221/319/230 222/320/230
f 223/321/231 224/1/231 225/322/231
f 226/3/232 227/323/232 228/324/232
f 229/325/233 230/6/233 231/326/233
f 232/5/234 233/318/234 234/327/234
f 235/319/235 236/328/235 237/329/235
f 238/330/236 239/331/236 240/332/236
f 241/333/235 242/8/235 243/334/235
f 244/7/237 245/335/237 246/336/237
f 247/323/238 248/337/238 249/338/238
f 250/339/239 251/340/239 252/341/239
f 253/342/240 254/343/240 255/344/240
f 256/345/241 257/345/241 258/346/241
f 259/347/242 260/348/242 261/349/242
f 262/350/243 263/351/243 264/352/243
f 265/350/244 266/352/245 267/353/246
f 268/354/247 269/355/247 270/356/247
f 271/357/248 272/358/248 273/359/248
f 274/360/249 275/361/249 276/362/249
f 277/358/229 278/358/250 279/359/250
f 280/345/251 281/363/251 282/346/251
f 283/364/252 284/365/252 285/366/252
f 286/367/240 287/368/240 288/369/240
f 261/349/253 270/356/254 259/347/255
f 270/356/256 253/342/256 255/344/256
f 254/343/257 258/344/257 255/344/257
f 280/345/258 258/346/258 257/345/259
f 286/367/256 282/346/256 281/363/256
f 288/369/260 274/360/257 276/362/257
f 273/359/261 275/361/262 271/357/261
f 272/358/229 279/359/250 273/359/229
f 283/364/263 279/370/264 278/371/265
f 266/352/245 262/350/266 264/352/267
f 259/347/268 263/351/269 260/348/269
f 266/352/245 284/365/270 267/353/246
f 284/365/271 223/321/271 225/322/271
f 224/1/232 228/324/232 225/322/232
f 265/350/272 228/324/273 227/323/273
f 224/1/250 217/372/229 219/373/229
f 278/358/274 218/318/274 217/318/275
f 281/363/276 235/319/277 237/329/277
f 238/330/256 237/329/256 236/328/256
f 239/331/278 286/367/279 240/332/278
f 275/361/280 229/325/280 231/326/280
f 232/5/281 231/326/261 230/6/261
f 272/358/282 234/327/283 233/318/283
f 243/334/277 268/354/276 241/333/277
f 244/7/256 243/334/256 242/8/256
f 254/343/284 246/336/284 245/335/284
f 249/338/285 262/350/285 247/323/285
f 250/339/286 249/338/287 248/337/287
f 261/349/288 252/341/289 251/340/289
f 239/331/257 230/6/290 229/325/290
f 236/328/258 220/319/258 222/320/258
f 218/318/229 232/5/250 219/4/229
f 220/319/291 256/345/291 221/319/291
f 241/333/259 250/339/258 242/8/259
f 248/337/232 227/323/232 226/3/232
f 221/335/257 244/7/257 222/7/257
f 278/371/274 223/321/275 283/364/275
f 272/358/275 218/318/274 277/358/274
f 220/319/292 280/345/292 257/345/293
f 254/343/294 221/335/295 256/343/294
f 228/324/273 284/365/273 225/322/273
f 227/323/273 262/350/273 265/350/272
f 239/331/295 274/360/295 287/368/294
f 275/361/296 234/327/296 271/357/296
f 237/329/291 286/367/291 281/363/291
f 251/340/292 268/354/292 261/349/292
f 269/355/291 246/336/291 253/342/297
f 249/338/298 260/348/298 263/351/298
f 175/166/1 276/374/1 273/375/1
f 266/376/1 264/377/1 85/76/1
f 289/378/299 290/11/299 291/378/300
f 292/379/301 293/13/301 294/379/301
f 295/380/302 296/381/302 297/12/302
f 298/382/303 299/383/304 300/384/303
f 301/385/305 302/386/305 303/387/305
f 304/388/306 305/379/306 306/389/306
f 307/378/307 308/10/307 309/390/307
f 310/9/308 311/391/308 312/392/308
f 313/393/309 314/394/309 315/395/309
f 316/396/310 317/383/310 318/397/310
f 319/398/311 320/15/311 321/399/311
f 322/14/306 323/400/306 324/401/306
f 325/402/312 326/403/312 327/404/312
f 328/405/313 329/406/313 330/407/313
f 331/408/300 332/409/300 333/410/300
f 334/411/314 335/412/314 336/413/314
f 337/414/315 338/415/315 339/416/315
f 340/417/316 341/418/316 342/419/316
f 343/420/317 344/421/317 345/422/317
f 346/423/318 347/424/318 348/425/318
f 349/426/319 350/427/319 351/428/319
f 352/429/303 353/430/304 354/431/304
f 355/432/320 356/433/320 357/434/320
f 358/435/321 359/436/321 360/437/321
f 357/434/322 360/437/323 355/432/324
f 354/431/304 359/436/304 352/429/303
f 354/431/304 349/426/303 351/428/303
f 333/410/300 350/427/325 331/408/300
f 333/410/300 325/402/299 327/404/299
f 328/405/326 327/404/326 326/403/326
f 329/406/327 336/413/328 330/407/327
f 339/416/329 340/417/329 337/414/329
f 346/423/330 339/416/331 338/415/331
f 348/425/332 343/420/333 345/422/333
f 344/421/334 355/432/335 345/422/336
f 335/412/337 341/418/338 336/413/337
f 289/438/299 297/12/300 290/439/299
f 298/382/303 297/12/304 296/381/304
f 298/382/272 352/440/273 299/383/273
f 350/441/339 296/381/271 295/380/340
f 332/442/275 289/378/275 291/378/274
f 303/387/284 334/443/284 301/385/284
f 302/386/332 306/389/332 303/387/332
f 340/444/341 306/389/277 305/379/277
f 309/390/282 325/442/283 307/378/282
f 310/9/326 309/390/342 308/10/342
f 311/391/343 328/445/280 312/392/343
f 347/446/278 319/398/284 321/399/284
f 322/14/333 321/399/332 320/15/332
f 344/447/341 324/401/277 323/400/276
f 357/448/289 313/393/344 315/395/344
f 314/394/345 318/397/345 315/395/345
f 317/383/285 358/449/285 318/397/285
f 301/385/331 310/9/330 302/386/331
f 308/10/300 291/378/300 290/11/299
f 292/379/329 304/388/329 293/13/329
f 294/379/291 337/444/291 292/379/291
f 299/383/304 316/396/304 300/384/303
f 323/400/329 314/394/329 313/393/329
f 320/15/330 294/398/330 293/15/330
f 295/380/275 331/450/275 350/441/275
f 291/378/274 325/442/274 332/442/275
f 340/444/346 292/379/292 337/444/346
f 338/451/295 319/398/295 346/451/295
f 298/382/272 349/452/273 353/453/273
f 317/383/273 352/440/273 359/440/273
f 329/454/295 301/385/295 334/443/295
f 303/387/291 342/455/291 335/456/291
f 326/457/296 312/392/296 328/445/296
f 344/447/292 313/393/292 356/458/346
f 318/397/298 357/448/298 315/395/298
f 321/399/291 343/459/291 347/446/291
f 88/79/2 360/437/2 354/431/2
f 208/199/2 202/193/2 336/413/2
f 27/18/67 32/23/67 31/22/67
f 28/208/68 30/461/225 27/209/69
f 34/25/70 36/27/70 30/21/70
f 36/211/71 35/462/72 33/212/72
f 33/24/73 38/29/73 37/28/73
f 40/31/74 42/33/74 35/26/74
f 42/214/75 41/306/76 39/215/76
f 39/30/77 44/35/77 43/34/77
f 46/37/78 48/39/78 41/32/78
f 44/217/79 48/463/79 47/218/80
f 45/36/82 50/41/82 49/40/82
f 52/43/83 54/45/83 47/38/83
f 54/220/84 53/464/85 51/221/85
f 51/42/86 56/47/347 55/46/86
f 58/49/87 60/51/348 53/44/88
f 60/223/89 59/307/90 57/224/90
f 62/53/91 61/52/91 55/46/91
f 64/55/92 66/57/349 59/50/92
f 66/226/93 65/465/94 63/227/94
f 63/54/95 67/58/95 69/60/95
f 70/61/96 72/63/96 65/56/96
f 67/229/97 72/308/97 71/230/98
f 68/59/99 74/65/350 73/64/100
f 76/67/101 78/69/351 71/62/102
f 74/232/103 78/466/103 77/233/104
f 80/71/105 79/70/105 73/64/105
f 76/67/106 82/73/106 84/75/106
f 80/235/108 84/467/352 83/236/109
f 86/77/111 85/76/111 79/70/112
f 82/73/114 88/79/114 90/81/114
f 86/238/115 90/468/115 89/239/116
f 92/83/117 91/82/117 85/76/117
f 88/79/118 94/85/118 96/87/118
f 96/241/119 95/469/353 93/242/120
f 98/89/121 97/88/121 91/82/121
f 94/85/122 100/91/122 102/93/122
f 102/244/123 101/470/124 99/245/124
f 104/95/125 103/94/125 97/88/126
f 100/91/127 106/97/127 108/99/127
f 104/247/129 108/309/226 107/248/130
f 110/101/131 109/100/131 103/94/131
f 106/97/132 112/103/132 114/105/132
f 110/250/133 114/471/133 113/251/134
f 115/106/135 117/108/135 109/100/136
f 112/103/137 118/109/138 120/111/138
f 120/253/139 119/310/227 116/254/140
f 122/113/141 121/112/141 117/108/142
f 118/109/143 124/115/143 126/117/143
f 122/256/145 126/472/145 125/257/146
f 123/114/147 128/119/147 127/118/147
f 130/121/148 132/123/148 125/116/148
f 128/259/149 132/473/149 131/260/150
f 129/120/151 134/125/151 133/124/151
f 136/127/152 138/129/152 131/122/152
f 138/262/153 137/474/154 135/263/154
f 135/126/155 140/131/155 139/130/155
f 142/133/156 144/135/156 137/128/156
f 144/265/157 143/475/158 141/266/158
f 141/132/159 146/137/160 145/136/160
f 148/139/162 150/141/162 143/134/162
f 146/268/164 150/311/164 149/269/165
f 147/138/166 152/143/167 151/142/167
f 154/145/168 156/147/168 149/140/169
f 152/271/170 156/312/170 155/272/171
f 153/144/172 158/149/354 157/148/172
f 160/151/173 162/153/173 155/146/173
f 162/274/174 161/476/175 159/275/175
f 159/150/176 164/155/176 163/154/176
f 166/157/177 168/159/177 161/152/178
f 168/277/179 167/313/180 165/278/180
f 165/156/181 170/161/355 169/160/181
f 172/163/183 174/165/183 167/158/183
f 174/280/184 173/477/185 171/281/185
f 176/167/186 175/166/186 169/160/187
f 172/163/188 178/169/189 180/171/189
f 176/283/191 180/314/228 179/284/192
f 182/173/194 181/172/194 175/166/194
f 178/169/196 184/175/197 186/177/197
f 186/286/198 185/478/199 183/287/199
f 188/179/200 187/178/200 181/172/200
f 184/175/201 190/181/201 192/183/201
f 192/289/202 191/315/203 189/290/203
f 194/185/204 193/184/204 187/178/204
f 190/181/205 196/187/205 198/189/205
f 194/292/206 198/479/206 197/293/207
f 200/191/208 199/190/208 193/184/208
f 196/187/209 202/193/210 204/195/210
f 200/295/212 204/316/212 203/296/213
f 206/197/214 205/196/214 199/190/214
f 202/193/215 208/199/215 210/201/215
f 210/298/216 209/480/217 207/299/217
f 28/19/218 214/205/218 216/207/218
f 208/199/219 216/207/219 215/206/219
f 212/203/220 211/202/356 205/196/220
f 212/301/221 215/317/221 214/302/222
f 211/202/223 213/204/223 26/17/224
f 30/304/225 36/211/71 32/213/71
f 214/302/222 28/208/68 26/210/68
f 33/212/72 35/462/72 42/214/75
f 41/306/76 48/463/79 44/217/79
f 45/219/81 47/218/80 54/220/84
f 51/221/85 53/464/85 60/223/89
f 59/307/90 66/226/93 62/228/93
f 63/227/94 65/465/94 72/308/97
f 71/230/98 78/466/103 74/232/103
f 77/233/104 84/467/352 80/235/108
f 83/236/109 90/468/115 86/238/115
f 87/240/116 89/239/116 96/241/119
f 93/242/120 95/469/353 102/244/123
f 99/245/124 101/470/124 108/309/226
f 107/248/130 114/471/133 110/250/133
f 111/252/134 113/251/134 120/253/139
f 119/310/227 126/472/145 122/256/145
f 125/257/146 132/473/149 128/259/149
f 131/260/150 138/262/153 134/264/153
f 135/263/154 137/474/154 144/265/157
f 141/266/158 143/475/158 150/311/164
f 147/270/165 149/269/165 156/312/170
f 153/273/171 155/272/171 162/274/174
f 159/275/175 161/476/175 168/277/179
f 167/313/180 174/280/184 170/282/184
f 171/281/185 173/477/185 180/314/228
f 177/285/193 179/284/192 186/286/198
f 183/287/199 185/478/199 192/289/202
f 191/315/203 198/479/206 194/292/206
f 195/294/207 197/293/207 204/316/212
f 203/296/213 210/298/216 206/300/216
f 207/299/217 209/480/217 215/317/221
f 261/349/253 268/354/255 270/356/254
f 270/356/256 269/355/256 253/342/256
f 254/343/257 256/343/257 258/344/257
f 280/345/258 282/346/258 258/346/258
f 286/367/256 288/369/256 282/346/256
f 288/369/260 287/368/357 274/360/257
f 273/359/261 276/362/262 275/361/262
f 272/358/229 277/358/229 279/359/250
f 283/364/263 285/366/358 279/370/264
f 266/352/245 265/350/244 262/350/266
f 259/347/268 264/352/359 263/351/269
f 266/352/245 285/366/360 284/365/270
f 284/365/271 283/364/271 223/321/271
f 224/1/232 226/3/232 228/324/232
f 265/350/272 267/353/272 228/324/273
f 224/1/250 223/321/250 217/372/229
f 278/358/274 277/358/274 218/318/274
f 281/363/276 280/345/276 235/319/277
f 238/330/256 240/332/256 237/329/256
f 239/331/278 287/368/279 286/367/279
f 275/361/280 274/360/280 229/325/280
f 232/5/281 234/327/262 231/326/261
f 272/358/282 271/357/282 234/327/283
f 243/334/277 269/355/276 268/354/276
f 244/7/256 246/336/256 243/334/256
f 254/343/284 253/342/284 246/336/284
f 249/338/285 263/351/285 262/350/285
f 250/339/286 252/341/286 249/338/287
f 261/349/288 260/348/288 252/341/289
f 239/331/257 238/330/257 230/6/290
f 236/328/258 235/319/259 220/319/258
f 218/318/229 233/318/250 232/5/250
f 220/319/291 257/345/291 256/345/291
f 241/333/259 251/340/258 250/339/258
f 248/337/232 247/323/232 227/323/232
f 221/335/257 245/335/257 244/7/257
f 278/371/274 217/372/275 223/321/275
f 272/358/275 233/318/274 218/318/274
f 220/319/292 235/319/292 280/345/292
f 254/343/294 245/335/295 221/335/295
f 228/324/273 267/353/272 284/365/273
f 227/323/273 247/323/273 262/350/273
f 239/331/295 229/325/295 274/360/295
f 275/361/296 231/326/361 234/327/296
f 237/329/291 240/332/291 286/367/291
f 251/340/292 241/333/346 268/354/292
f 269/355/291 243/334/291 246/336/291
f 249/338/298 252/341/298 260/348/298
f 199/190/1 205/196/1 288/481/1
f 205/196/1 211/202/1 288/481/1
f 211/202/1 25/16/1 282/482/1
f 25/16/1 31/22/1 255/483/1
f 282/482/1 25/16/1 255/483/1
f 31/22/1 37/28/1 270/484/1
f 37/28/1 43/34/1 270/484/1
f 43/34/1 49/40/1 270/484/1
f 49/40/1 55/46/1 259/485/1
f 270/484/1 49/40/1 259/485/1
f 55/46/1 61/52/1 259/485/1
f 61/52/1 69/60/1 259/485/1
f 255/483/1 258/486/1 282/482/1
f 270/484/1 255/483/1 31/22/1
f 288/481/1 211/202/1 282/482/1
f 187/178/1 193/184/1 276/374/1
f 193/184/1 199/190/1 288/481/1
f 175/166/1 181/172/1 276/374/1
f 181/172/1 187/178/1 276/374/1
f 163/154/1 169/160/1 273/375/1
f 169/160/1 175/166/1 273/375/1
f 151/142/1 157/148/1 279/487/1
f 157/148/1 163/154/1 273/375/1
f 139/130/1 145/136/1 279/487/1
f 145/136/1 151/142/1 279/487/1
f 127/118/1 133/124/1 285/488/1
f 133/124/1 139/130/1 285/488/1
f 117/108/1 121/112/1 285/488/1
f 121/112/1 127/118/1 285/488/1
f 279/487/1 285/488/1 139/130/1
f 273/375/1 279/487/1 157/148/1
f 193/184/1 288/481/1 276/374/1
f 264/377/1 259/485/1 69/60/1
f 69/60/1 73/64/1 264/377/1
f 73/64/1 79/70/1 264/377/1
f 79/70/1 85/76/1 264/377/1
f 85/76/1 91/82/1 266/376/1
f 91/82/1 97/88/1 266/376/1
f 97/88/1 103/94/1 266/376/1
f 103/94/1 109/100/1 285/488/1
f 109/100/1 117/108/1 285/488/1
f 285/488/1 266/376/1 103/94/1
f 357/434/322 358/435/362 360/437/323
f 354/431/304 360/437/304 359/436/304
f 354/431/304 353/430/304 349/426/303
f 333/410/300 351/428/325 350/427/325
f 333/410/300 332/409/300 325/402/299
f 328/405/326 330/407/326 327/404/326
f 329/406/327 334/411/363 336/413/328
f 339/416/329 341/418/329 340/417/329
f 346/423/330 348/425/330 339/416/331
f 348/425/332 347/424/332 343/420/333
f 344/421/334 356/433/364 355/432/335
f 335/412/337 342/419/338 341/418/338
f 289/438/299 295/380/300 297/12/300
f 298/382/303 300/384/303 297/12/304
f 298/382/272 353/453/273 352/440/273
f 350/441/339 349/452/339 296/381/271
f 332/442/275 331/442/275 289/378/275
f 303/387/284 335/456/284 334/443/284
f 302/386/332 304/388/332 306/389/332
f 340/444/341 342/455/341 306/389/277
f 309/390/282 326/457/283 325/442/283
f 310/9/326 312/392/326 309/390/342
f 311/391/343 329/454/280 328/445/280
f 347/446/278 346/451/278 319/398/284
f 322/14/333 324/401/333 321/399/332
f 344/447/341 343/459/341 324/401/277
f 357/448/289 356/458/289 313/393/344
f 314/394/345 316/396/345 318/397/345
f 317/383/285 359/440/285 358/449/285
f 301/385/331 311/391/330 310/9/330
f 308/10/300 307/378/300 291/378/300
f 292/379/329 305/379/329 304/388/329
f 294/379/291 338/444/291 337/444/291
f 299/383/304 317/383/304 316/396/304
f 323/400/329 322/14/329 314/394/329
f 320/15/330 319/398/330 294/398/330
f 295/380/275 289/438/275 331/450/275
f 291/378/274 307/378/275 325/442/274
f 340/444/346 305/379/292 292/379/292
f 338/451/295 294/398/295 319/398/295
f 298/382/272 296/381/273 349/452/273
f 317/383/273 299/383/273 352/440/273
f 329/454/295 311/391/295 301/385/295
f 303/387/291 306/389/291 342/455/291
f 326/457/296 309/390/296 312/392/296
f 344/447/292 323/400/292 313/393/292
f 318/397/298 358/449/298 357/448/298
f 321/399/291 324/401/291 343/459/291
f 336/413/2 202/193/2 196/187/2
f 196/187/2 190/181/2 330/407/2
f 190/181/2 184/175/2 330/407/2
f 196/187/2 330/407/2 336/413/2
f 184/175/2 178/169/2 330/407/2
f 178/169/2 172/163/2 327/404/2
f 172/163/2 166/157/2 327/404/2
f 166/157/2 160/151/2 327/404/2
f 160/151/2 154/145/2 333/410/2
f 154/145/2 148/139/2 333/410/2
f 160/151/2 333/410/2 327/404/2
f 148/139/2 142/133/2 333/410/2
f 142/133/2 136/127/2 351/428/2
f 333/410/2 142/133/2 351/428/2
f 136/127/2 130/121/2 351/428/2
f 130/121/2 124/115/2 351/428/2
f 124/115/2 118/109/2 351/428/2
f 118/109/2 112/103/2 351/428/2
f 112/103/2 106/97/2 351/428/2
f 106/97/2 100/91/2 354/431/2
f 351/428/2 106/97/2 354/431/2
f 100/91/2 94/85/2 354/431/2
f 94/85/2 88/79/2 354/431/2
f 88/79/2 82/73/2 360/437/2
f 82/73/2 76/67/2 360/437/2
f 76/67/2 70/61/2 360/437/2
f 70/61/2 64/55/2 355/432/2
f 360/437/2 70/61/2 355/432/2
f 64/55/2 58/49/2 355/432/2
f 178/169/2 327/404/2 330/407/2
f 341/418/2 339/416/2 348/425/2
f 345/422/2 355/432/2 52/43/2
f 355/432/2 58/49/2 52/43/2
f 336/413/2 341/418/2 216/207/2
f 341/418/2 348/425/2 29/20/2
f 216/207/2 341/418/2 29/20/2
f 348/425/2 345/422/2 34/25/2
f 46/37/2 345/422/2 52/43/2
f 46/37/2 40/31/2 345/422/2
f 40/31/2 34/25/2 345/422/2
f 34/25/2 29/20/2 348/425/2
f 216/207/2 208/199/2 336/413/2
